0
SECTION
2
HEADER
9
$INSUNITS
70
4
0
ENDSEC
0
SECTION
2
TABLES
0
TABLE
2
LTYPE
0
LTYPE
72
65
70
64
2
CONTINUOUS
3
______
73
0
40
0
0
ENDTAB
0
TABLE
2
LAYER
0
ENDTAB
0
ENDSEC
0
SECTION
2
ENTITIES
0
LINE
8
0
10
365
20
-160
11
365
21
-83
0
LINE
8
0
10
328
20
-82
11
364
21
-82
0
LINE
8
0
10
327
20
-81
11
327
21
-78
0
LINE
8
0
10
326
20
-77
11
309
21
-77
0
LINE
8
0
10
308
20
-76
11
308
21
-75
0
LINE
8
0
10
307
20
-74
11
287
21
-74
0
LINE
8
0
10
286
20
-75
11
286
21
-78
0
LINE
8
0
10
249
20
-79
11
285
21
-79
0
LINE
8
0
10
248
20
-80
11
248
21
-143.0353577
0
LINE
8
0
10
247.6448823
20
-143.7996396
11
218.7101954
21
-168.2140201
0
LINE
8
0
10
218.5890333
20
-169.6210896
11
231.4465428
21
-184.9440728
0
LINE
8
0
10
232.8553748
20
-185.0673296
11
263.3700572
21
-159.4624709
0
LINE
8
0
10
263.6518775
20
-159.2959368
11
266.8258129
21
-158.0674215
0
LINE
8
0
10
267.1867802
20
-158
11
288
21
-158
0
LINE
8
0
10
289
20
-157
11
289
21
-154
0
LINE
8
0
10
290
20
-153
11
304
21
-153
0
LINE
8
0
10
305
20
-154
11
305
21
-155
0
LINE
8
0
10
306
20
-156
11
323
21
-156
0
LINE
8
0
10
324
20
-157
11
324
21
-160
0
LINE
8
0
10
325
20
-161
11
364
21
-161
0
ARC
8
0
10
364
20
-83
40
1
50
0
51
90
0
ARC
8
0
10
328
20
-81
40
1
50
180
51
270
0
ARC
8
0
10
326
20
-78
40
1
50
0
51
90
0
ARC
8
0
10
309
20
-76
40
1
50
180
51
270
0
ARC
8
0
10
307
20
-75
40
1
50
0
51
90
0
ARC
8
0
10
287
20
-75
40
1
50
90
51
180
0
ARC
8
0
10
285
20
-78
40
1
50
270
51
0
0
ARC
8
0
10
249
20
-80
40
1
50
90
51
180
0
ARC
8
0
10
247
20
-143.0353577
40
1
50
310.1568512
51
0
0
ARC
8
0
10
219.3550777
20
-168.978302
40
1
50
130.1568512
51
220.0000012
0
ARC
8
0
10
232.2125872
20
-184.3012852
40
1
50
220.0000012
51
310.0000012
0
ARC
8
0
10
264.0128448
20
-160.2285153
40
1
50
111.1596126
51
130.0000012
0
ARC
8
0
10
267.1867802
20
-159
40
1
50
90
51
111.1596126
0
ARC
8
0
10
288
20
-157
40
1
50
270
51
0
0
ARC
8
0
10
290
20
-154
40
1
50
90
51
180
0
ARC
8
0
10
304
20
-154
40
1
50
0
51
90
0
ARC
8
0
10
306
20
-155
40
1
50
180
51
270
0
ARC
8
0
10
323
20
-157
40
1
50
0
51
90
0
ARC
8
0
10
325
20
-160
40
1
50
180
51
270
0
ARC
8
0
10
364
20
-160
40
1
50
270
51
0
0
ENDSEC
0
EOF