0
SECTION
2
HEADER
9
$INSUNITS
70
4
0
ENDSEC
0
SECTION
2
TABLES
0
TABLE
2
LTYPE
0
LTYPE
72
65
70
64
2
CONTINUOUS
3
______
73
0
40
0
0
ENDTAB
0
TABLE
2
LAYER
0
ENDTAB
0
ENDSEC
0
SECTION
2
ENTITIES
0
LINE
8
0
10
382.825
20
-160.025
11
382.825
21
-79.825
0
LINE
8
0
10
344.725
20
-77.825
11
380.825
21
-77.825
0
LINE
8
0
10
362.775
20
-77.825
11
362.775
21
-77.825
0
LINE
8
0
10
342.725
20
-75.825
11
342.725
21
-71.825
0
LINE
8
0
10
340.725
20
-69.825
11
324.675
21
-69.825
0
LINE
8
0
10
322.675
20
-67.825
11
322.675
21
-66.825
0
LINE
8
0
10
320.675
20
-64.825
11
300.625
21
-64.825
0
LINE
8
0
10
298.625
20
-66.825
11
298.625
21
-69.825
0
LINE
8
0
10
260.525
20
-71.825
11
296.625
21
-71.825
0
LINE
8
0
10
258.525
20
-73.825
11
258.525
21
-138.5806447
0
LINE
8
0
10
257.2166874
20
-140.457229
11
222.4511493
21
-153.2714065
0
LINE
8
0
10
221.2634515
20
-155.832031
11
231.5524871
21
-184.1009239
0
LINE
8
0
10
234.1159125
20
-185.2962689
11
272.896252
21
-171.1813796
0
LINE
8
0
10
274.0265527
20
-170.1435212
11
280.0376774
21
-157.1834732
0
LINE
8
0
10
281.8520182
20
-156.025
11
300.625
21
-156.025
0
LINE
8
0
10
302.625
20
-154.025
11
302.625
21
-151.025
0
LINE
8
0
10
304.625
20
-149.025
11
316.675
21
-149.025
0
LINE
8
0
10
318.675
20
-151.025
11
318.675
21
-152.025
0
LINE
8
0
10
320.675
20
-154.025
11
336.725
21
-154.025
0
LINE
8
0
10
338.725
20
-156.025
11
338.725
21
-160.025
0
LINE
8
0
10
340.725
20
-162.025
11
380.825
21
-162.025
0
LINE
8
0
10
358.775
20
-162.025
11
358.775
21
-162.025
0
ARC
8
0
10
380.825
20
-79.825
40
2
50
0
51
90
0
ARC
8
0
10
344.725
20
-75.825
40
2
50
180
51
270
0
ARC
8
0
10
340.725
20
-71.825
40
2
50
0
51
90
0
ARC
8
0
10
324.675
20
-67.825
40
2
50
180
51
270
0
ARC
8
0
10
320.675
20
-66.825
40
2
50
0
51
90
0
ARC
8
0
10
300.625
20
-66.825
40
2
50
90
51
180
0
ARC
8
0
10
296.625
20
-69.825
40
2
50
270
51
0
0
ARC
8
0
10
260.525
20
-73.825
40
2
50
90
51
180
0
ARC
8
0
10
256.525
20
-138.5806447
40
2
50
290.2333076
51
0
0
ARC
8
0
10
223.1428368
20
-155.1479908
40
2
50
110.2333076
51
199.9999981
0
ARC
8
0
10
233.4318723
20
-183.4168837
40
2
50
199.9999981
51
289.9999981
0
ARC
8
0
10
272.2122118
20
-169.3019944
40
2
50
289.9999981
51
335.1172061
0
ARC
8
0
10
281.8520182
20
-158.025
40
2
50
90
51
155.1172061
0
ARC
8
0
10
300.625
20
-154.025
40
2
50
270
51
0
0
ARC
8
0
10
304.625
20
-151.025
40
2
50
90
51
180
0
ARC
8
0
10
316.675
20
-151.025
40
2
50
0
51
90
0
ARC
8
0
10
320.675
20
-152.025
40
2
50
180
51
270
0
ARC
8
0
10
336.725
20
-156.025
40
2
50
0
51
90
0
ARC
8
0
10
340.725
20
-160.025
40
2
50
180
51
270
0
ARC
8
0
10
380.825
20
-160.025
40
2
50
270
51
0
0
ENDSEC
0
EOF