0
SECTION
2
HEADER
9
$INSUNITS
70
4
0
ENDSEC
0
SECTION
2
TABLES
0
TABLE
2
LTYPE
0
LTYPE
72
65
70
64
2
CONTINUOUS
3
______
73
0
40
0
0
ENDTAB
0
TABLE
2
LAYER
0
ENDTAB
0
ENDSEC
0
SECTION
2
ENTITIES
0
LINE
8
0
10
39
20
-160
11
39
21
-83
0
LINE
8
0
10
40
20
-82
11
76
21
-82
0
LINE
8
0
10
77
20
-81
11
77
21
-78
0
LINE
8
0
10
78
20
-77
11
95
21
-77
0
LINE
8
0
10
96
20
-76
11
96
21
-75
0
LINE
8
0
10
97
20
-74
11
117
21
-74
0
LINE
8
0
10
118
20
-75
11
118
21
-78
0
LINE
8
0
10
119
20
-79
11
155
21
-79
0
LINE
8
0
10
156
20
-80
11
156
21
-143.0353577
0
LINE
8
0
10
156.3551177
20
-143.7996396
11
185.2898046
21
-168.2140201
0
LINE
8
0
10
185.4109667
20
-169.6210896
11
172.5534572
21
-184.9440728
0
LINE
8
0
10
171.1446252
20
-185.0673296
11
140.6299428
21
-159.4624709
0
LINE
8
0
10
140.3481225
20
-159.2959368
11
137.1741871
21
-158.0674215
0
LINE
8
0
10
136.8132198
20
-158
11
116
21
-158
0
LINE
8
0
10
115
20
-157
11
115
21
-154
0
LINE
8
0
10
114
20
-153
11
100
21
-153
0
LINE
8
0
10
99
20
-154
11
99
21
-155
0
LINE
8
0
10
98
20
-156
11
81
21
-156
0
LINE
8
0
10
80
20
-157
11
80
21
-160
0
LINE
8
0
10
40
20
-161
11
79
21
-161
0
ARC
8
0
10
40
20
-83
40
1
50
90
51
180
0
ARC
8
0
10
76
20
-81
40
1
50
270
51
0
0
ARC
8
0
10
78
20
-78
40
1
50
90
51
180
0
ARC
8
0
10
95
20
-76
40
1
50
270
51
0
0
ARC
8
0
10
97
20
-75
40
1
50
90
51
180
0
ARC
8
0
10
117
20
-75
40
1
50
0
51
90
0
ARC
8
0
10
119
20
-78
40
1
50
180
51
270
0
ARC
8
0
10
155
20
-80
40
1
50
0
51
90
0
ARC
8
0
10
157
20
-143.0353577
40
1
50
180
51
229.8431488
0
ARC
8
0
10
184.6449223
20
-168.978302
40
1
50
319.9999988
51
49.8431488
0
ARC
8
0
10
171.7874128
20
-184.3012852
40
1
50
229.9999988
51
319.9999988
0
ARC
8
0
10
139.9871552
20
-160.2285153
40
1
50
49.9999988
51
68.8403874
0
ARC
8
0
10
136.8132198
20
-159
40
1
50
68.8403874
51
90
0
ARC
8
0
10
116
20
-157
40
1
50
180
51
270
0
ARC
8
0
10
114
20
-154
40
1
50
0
51
90
0
ARC
8
0
10
100
20
-154
40
1
50
90
51
180
0
ARC
8
0
10
98
20
-155
40
1
50
270
51
0
0
ARC
8
0
10
81
20
-157
40
1
50
90
51
180
0
ARC
8
0
10
79
20
-160
40
1
50
270
51
0
0
ARC
8
0
10
40
20
-160
40
1
50
180
51
270
0
LINE
8
0
10
40.5
20
-159.5
11
78.5
21
-159.5
0
LINE
8
0
10
40.5
20
-159.5
11
40.5
21
-83.5
0
LINE
8
0
10
40.5
20
-83.5
11
78.5
21
-83.5
0
LINE
8
0
10
78.5
20
-159.5
11
78.5
21
-154.5
0
LINE
8
0
10
78.5
20
-154.5
11
97.5
21
-154.5
0
LINE
8
0
10
97.5
20
-154.5
11
97.5
21
-151.5
0
LINE
8
0
10
97.5
20
-78.5
11
78.5
21
-78.5
0
LINE
8
0
10
78.5
20
-78.5
11
78.5
21
-83.5
0
LINE
8
0
10
97.5
20
-151.5
11
116.5
21
-151.5
0
LINE
8
0
10
116.5
20
-80.5
11
116.5
21
-75.5
0
LINE
8
0
10
116.5
20
-75.5
11
97.5
21
-75.5
0
LINE
8
0
10
97.5
20
-75.5
11
97.5
21
-78.5
0
LINE
8
0
10
116.5
20
-156.5
11
135.5
21
-156.5
0
LINE
8
0
10
135.5
20
-156.5
11
135.5
21
-139.5
0
LINE
8
0
10
116.5
20
-151.5
11
116.5
21
-156.5
0
LINE
8
0
10
135.5
20
-82.5
11
135.5
21
-80.5
0
LINE
8
0
10
135.5
20
-80.5
11
116.5
21
-80.5
0
LINE
8
0
10
135.5
20
-139.5
11
154.5
21
-139.5
0
LINE
8
0
10
154.5
20
-139.5
11
154.5
21
-82.5
0
LINE
8
0
10
154.5
20
-82.5
11
135.5
21
-82.5
0
LINE
8
0
10
142.6160955
20
-159.1709399
11
171.7257843
21
-183.5968691
0
LINE
8
0
10
154.8290601
20
-144.6160955
11
183.9387489
21
-169.0420247
0
LINE
8
0
10
154.8290601
20
-144.6160955
11
142.6160955
21
-159.1709399
0
LINE
8
0
10
171.7257843
20
-183.5968691
11
183.9387489
21
-169.0420247
0
ENDSEC
0
EOF