0
SECTION
2
HEADER
9
$INSUNITS
70
4
0
ENDSEC
0
SECTION
2
TABLES
0
TABLE
2
LTYPE
0
LTYPE
72
65
70
64
2
CONTINUOUS
3
______
73
0
40
0
0
ENDTAB
0
TABLE
2
LAYER
0
ENDTAB
0
ENDSEC
0
SECTION
2
ENTITIES
0
LINE
8
0
10
37.975
20
-160.025
11
37.975
21
-79.825
0
LINE
8
0
10
39.975
20
-77.825
11
76.075
21
-77.825
0
LINE
8
0
10
78.075
20
-75.825
11
78.075
21
-71.825
0
LINE
8
0
10
80.075
20
-69.825
11
96.125
21
-69.825
0
LINE
8
0
10
98.125
20
-67.825
11
98.125
21
-66.825
0
LINE
8
0
10
100.125
20
-64.825
11
120.175
21
-64.825
0
LINE
8
0
10
122.175
20
-66.825
11
122.175
21
-69.825
0
LINE
8
0
10
124.175
20
-71.825
11
160.275
21
-71.825
0
LINE
8
0
10
162.275
20
-73.825
11
162.275
21
-138.5806447
0
LINE
8
0
10
163.5833126
20
-140.457229
11
198.3488507
21
-153.2714065
0
LINE
8
0
10
199.5365485
20
-155.832031
11
189.2475129
21
-184.1009239
0
LINE
8
0
10
186.6840875
20
-185.2962689
11
147.903748
21
-171.1813796
0
LINE
8
0
10
146.7734473
20
-170.1435212
11
140.7623226
21
-157.1834732
0
LINE
8
0
10
138.9479818
20
-156.025
11
120.175
21
-156.025
0
LINE
8
0
10
118.175
20
-154.025
11
118.175
21
-151.025
0
LINE
8
0
10
116.175
20
-149.025
11
104.125
21
-149.025
0
LINE
8
0
10
102.125
20
-151.025
11
102.125
21
-152.025
0
LINE
8
0
10
100.125
20
-154.025
11
84.075
21
-154.025
0
LINE
8
0
10
82.075
20
-156.025
11
82.075
21
-160.025
0
LINE
8
0
10
39.975
20
-162.025
11
80.075
21
-162.025
0
ARC
8
0
10
39.975
20
-79.825
40
2
50
90
51
180
0
ARC
8
0
10
76.075
20
-75.825
40
2
50
270
51
0
0
ARC
8
0
10
80.075
20
-71.825
40
2
50
90
51
180
0
ARC
8
0
10
96.125
20
-67.825
40
2
50
270
51
0
0
ARC
8
0
10
100.125
20
-66.825
40
2
50
90
51
180
0
ARC
8
0
10
120.175
20
-66.825
40
2
50
0
51
90
0
ARC
8
0
10
124.175
20
-69.825
40
2
50
180
51
270
0
ARC
8
0
10
160.275
20
-73.825
40
2
50
0
51
90
0
ARC
8
0
10
164.275
20
-138.5806447
40
2
50
180
51
249.7666924
0
ARC
8
0
10
197.6571632
20
-155.1479908
40
2
50
340.0000019
51
69.7666924
0
ARC
8
0
10
187.3681277
20
-183.4168837
40
2
50
250.0000019
51
340.0000019
0
ARC
8
0
10
148.5877882
20
-169.3019944
40
2
50
204.8827939
51
250.0000019
0
ARC
8
0
10
138.9479818
20
-158.025
40
2
50
24.8827939
51
90
0
ARC
8
0
10
120.175
20
-154.025
40
2
50
180
51
270
0
ARC
8
0
10
116.175
20
-151.025
40
2
50
0
51
90
0
ARC
8
0
10
104.125
20
-151.025
40
2
50
90
51
180
0
ARC
8
0
10
100.125
20
-152.025
40
2
50
270
51
0
0
ARC
8
0
10
84.075
20
-156.025
40
2
50
90
51
180
0
ARC
8
0
10
80.075
20
-160.025
40
2
50
270
51
0
0
ARC
8
0
10
39.975
20
-160.025
40
2
50
180
51
270
0
LINE
8
0
10
39.975
20
-160.025
11
80.075
21
-160.025
0
LINE
8
0
10
39.975
20
-160.025
11
39.975
21
-79.825
0
LINE
8
0
10
39.975
20
-79.825
11
80.075
21
-79.825
0
LINE
8
0
10
80.075
20
-160.025
11
80.075
21
-152.025
0
LINE
8
0
10
80.075
20
-152.025
11
100.125
21
-152.025
0
LINE
8
0
10
100.125
20
-152.025
11
100.125
21
-147.025
0
LINE
8
0
10
100.125
20
-71.825
11
80.075
21
-71.825
0
LINE
8
0
10
80.075
20
-71.825
11
80.075
21
-79.825
0
LINE
8
0
10
100.125
20
-147.025
11
120.175
21
-147.025
0
LINE
8
0
10
120.175
20
-73.825
11
120.175
21
-66.825
0
LINE
8
0
10
120.175
20
-66.825
11
100.125
21
-66.825
0
LINE
8
0
10
100.125
20
-66.825
11
100.125
21
-71.825
0
LINE
8
0
10
120.175
20
-154.025
11
140.225
21
-154.025
0
LINE
8
0
10
140.225
20
-154.025
11
140.225
21
-136.975
0
LINE
8
0
10
120.175
20
-147.025
11
120.175
21
-154.025
0
LINE
8
0
10
140.225
20
-76.825
11
140.225
21
-73.825
0
LINE
8
0
10
140.225
20
-73.825
11
120.175
21
-73.825
0
LINE
8
0
10
140.225
20
-136.975
11
160.275
21
-136.975
0
LINE
8
0
10
160.275
20
-136.975
11
160.275
21
-76.825
0
LINE
8
0
10
160.275
20
-76.825
11
140.225
21
-76.825
0
LINE
8
0
10
151.4008295
20
-164.9916666
11
189.0825036
21
-178.7066744
0
LINE
8
0
10
158.2583334
20
-146.1508295
11
195.9400075
21
-159.8658373
0
LINE
8
0
10
158.2583334
20
-146.1508295
11
151.4008295
21
-164.9916666
0
LINE
8
0
10
189.0825036
20
-178.7066744
11
195.9400075
21
-159.8658373
0
ENDSEC
0
EOF