0
SECTION
2
HEADER
9
$INSUNITS
70
4
0
ENDSEC
0
SECTION
2
TABLES
0
TABLE
2
LTYPE
0
LTYPE
72
65
70
64
2
CONTINUOUS
3
______
73
0
40
0
0
ENDTAB
0
TABLE
2
LAYER
0
ENDTAB
0
ENDSEC
0
SECTION
2
ENTITIES
0
LINE
8
0
10
37.975
20
-160.025
11
37.975
21
-79.825
0
LINE
8
0
10
39.975
20
-77.825
11
76.075
21
-77.825
0
LINE
8
0
10
78.075
20
-75.825
11
78.075
21
-71.825
0
LINE
8
0
10
80.075
20
-69.825
11
96.125
21
-69.825
0
LINE
8
0
10
98.125
20
-67.825
11
98.125
21
-66.825
0
LINE
8
0
10
100.125
20
-64.825
11
120.175
21
-64.825
0
LINE
8
0
10
122.175
20
-66.825
11
122.175
21
-69.825
0
LINE
8
0
10
124.175
20
-71.825
11
160.275
21
-71.825
0
LINE
8
0
10
162.275
20
-73.825
11
162.275
21
-138.5806447
0
LINE
8
0
10
163.5833126
20
-140.457229
11
198.3488507
21
-153.2714065
0
LINE
8
0
10
199.5365485
20
-155.832031
11
189.2475129
21
-184.1009239
0
LINE
8
0
10
186.6840875
20
-185.2962689
11
147.903748
21
-171.1813796
0
LINE
8
0
10
146.7734473
20
-170.1435212
11
140.7623226
21
-157.1834732
0
LINE
8
0
10
138.9479818
20
-156.025
11
120.175
21
-156.025
0
LINE
8
0
10
118.175
20
-154.025
11
118.175
21
-151.025
0
LINE
8
0
10
116.175
20
-149.025
11
104.125
21
-149.025
0
LINE
8
0
10
102.125
20
-151.025
11
102.125
21
-152.025
0
LINE
8
0
10
100.125
20
-154.025
11
84.075
21
-154.025
0
LINE
8
0
10
82.075
20
-156.025
11
82.075
21
-160.025
0
LINE
8
0
10
39.975
20
-162.025
11
80.075
21
-162.025
0
ARC
8
0
10
39.975
20
-79.825
40
2
50
90
51
180
0
ARC
8
0
10
76.075
20
-75.825
40
2
50
270
51
0
0
ARC
8
0
10
80.075
20
-71.825
40
2
50
90
51
180
0
ARC
8
0
10
96.125
20
-67.825
40
2
50
270
51
0
0
ARC
8
0
10
100.125
20
-66.825
40
2
50
90
51
180
0
ARC
8
0
10
120.175
20
-66.825
40
2
50
0
51
90
0
ARC
8
0
10
124.175
20
-69.825
40
2
50
180
51
270
0
ARC
8
0
10
160.275
20
-73.825
40
2
50
0
51
90
0
ARC
8
0
10
164.275
20
-138.5806447
40
2
50
180
51
249.7666924
0
ARC
8
0
10
197.6571632
20
-155.1479908
40
2
50
340.0000019
51
69.7666924
0
ARC
8
0
10
187.3681277
20
-183.4168837
40
2
50
250.0000019
51
340.0000019
0
ARC
8
0
10
148.5877882
20
-169.3019944
40
2
50
204.8827939
51
250.0000019
0
ARC
8
0
10
138.9479818
20
-158.025
40
2
50
24.8827939
51
90
0
ARC
8
0
10
120.175
20
-154.025
40
2
50
180
51
270
0
ARC
8
0
10
116.175
20
-151.025
40
2
50
0
51
90
0
ARC
8
0
10
104.125
20
-151.025
40
2
50
90
51
180
0
ARC
8
0
10
100.125
20
-152.025
40
2
50
270
51
0
0
ARC
8
0
10
84.075
20
-156.025
40
2
50
90
51
180
0
ARC
8
0
10
80.075
20
-160.025
40
2
50
270
51
0
0
ARC
8
0
10
39.975
20
-160.025
40
2
50
180
51
270
0
LINE
8
0
10
43
20
-157
11
57
21
-157
0
LINE
8
0
10
57
20
-157
11
57
21
-143
0
LINE
8
0
10
57
20
-143
11
43
21
-143
0
LINE
8
0
10
43
20
-143
11
43
21
-157
0
LINE
8
0
10
43
20
-136.95
11
57
21
-136.95
0
LINE
8
0
10
57
20
-136.95
11
57
21
-122.95
0
LINE
8
0
10
57
20
-122.95
11
43
21
-122.95
0
LINE
8
0
10
43
20
-122.95
11
43
21
-136.95
0
LINE
8
0
10
43
20
-116.9
11
57
21
-116.9
0
LINE
8
0
10
57
20
-116.9
11
57
21
-102.9
0
LINE
8
0
10
57
20
-102.9
11
43
21
-102.9
0
LINE
8
0
10
43
20
-102.9
11
43
21
-116.9
0
LINE
8
0
10
43
20
-96.85
11
57
21
-96.85
0
LINE
8
0
10
57
20
-96.85
11
57
21
-82.85
0
LINE
8
0
10
57
20
-82.85
11
43
21
-82.85
0
LINE
8
0
10
43
20
-82.85
11
43
21
-96.85
0
LINE
8
0
10
63.05
20
-157
11
77.05
21
-157
0
LINE
8
0
10
77.05
20
-157
11
77.05
21
-143
0
LINE
8
0
10
77.05
20
-143
11
63.05
21
-143
0
LINE
8
0
10
63.05
20
-143
11
63.05
21
-157
0
LINE
8
0
10
63.05
20
-136.95
11
77.05
21
-136.95
0
LINE
8
0
10
77.05
20
-136.95
11
77.05
21
-122.95
0
LINE
8
0
10
77.05
20
-122.95
11
63.05
21
-122.95
0
LINE
8
0
10
63.05
20
-122.95
11
63.05
21
-136.95
0
LINE
8
0
10
63.05
20
-116.9
11
77.05
21
-116.9
0
LINE
8
0
10
77.05
20
-116.9
11
77.05
21
-102.9
0
LINE
8
0
10
77.05
20
-102.9
11
63.05
21
-102.9
0
LINE
8
0
10
63.05
20
-102.9
11
63.05
21
-116.9
0
LINE
8
0
10
63.05
20
-96.85
11
77.05
21
-96.85
0
LINE
8
0
10
77.05
20
-96.85
11
77.05
21
-82.85
0
LINE
8
0
10
77.05
20
-82.85
11
63.05
21
-82.85
0
LINE
8
0
10
63.05
20
-82.85
11
63.05
21
-96.85
0
LINE
8
0
10
83.1
20
-149
11
97.1
21
-149
0
LINE
8
0
10
97.1
20
-149
11
97.1
21
-135
0
LINE
8
0
10
97.1
20
-135
11
83.1
21
-135
0
LINE
8
0
10
83.1
20
-135
11
83.1
21
-149
0
LINE
8
0
10
83.1
20
-128.95
11
97.1
21
-128.95
0
LINE
8
0
10
97.1
20
-128.95
11
97.1
21
-114.95
0
LINE
8
0
10
97.1
20
-114.95
11
83.1
21
-114.95
0
LINE
8
0
10
83.1
20
-114.95
11
83.1
21
-128.95
0
LINE
8
0
10
83.1
20
-108.9
11
97.1
21
-108.9
0
LINE
8
0
10
97.1
20
-108.9
11
97.1
21
-94.9
0
LINE
8
0
10
97.1
20
-94.9
11
83.1
21
-94.9
0
LINE
8
0
10
83.1
20
-94.9
11
83.1
21
-108.9
0
LINE
8
0
10
83.1
20
-88.85
11
97.1
21
-88.85
0
LINE
8
0
10
97.1
20
-88.85
11
97.1
21
-74.85
0
LINE
8
0
10
97.1
20
-74.85
11
83.1
21
-74.85
0
LINE
8
0
10
83.1
20
-74.85
11
83.1
21
-88.85
0
LINE
8
0
10
103.15
20
-144
11
117.15
21
-144
0
LINE
8
0
10
117.15
20
-144
11
117.15
21
-130
0
LINE
8
0
10
117.15
20
-130
11
103.15
21
-130
0
LINE
8
0
10
103.15
20
-130
11
103.15
21
-144
0
LINE
8
0
10
103.15
20
-123.95
11
117.15
21
-123.95
0
LINE
8
0
10
117.15
20
-123.95
11
117.15
21
-109.95
0
LINE
8
0
10
117.15
20
-109.95
11
103.15
21
-109.95
0
LINE
8
0
10
103.15
20
-109.95
11
103.15
21
-123.95
0
LINE
8
0
10
103.15
20
-103.9
11
117.15
21
-103.9
0
LINE
8
0
10
117.15
20
-103.9
11
117.15
21
-89.9
0
LINE
8
0
10
117.15
20
-89.9
11
103.15
21
-89.9
0
LINE
8
0
10
103.15
20
-89.9
11
103.15
21
-103.9
0
LINE
8
0
10
103.15
20
-83.85
11
117.15
21
-83.85
0
LINE
8
0
10
117.15
20
-83.85
11
117.15
21
-69.85
0
LINE
8
0
10
117.15
20
-69.85
11
103.15
21
-69.85
0
LINE
8
0
10
103.15
20
-69.85
11
103.15
21
-83.85
0
LINE
8
0
10
123.2
20
-151
11
137.2
21
-151
0
LINE
8
0
10
137.2
20
-151
11
137.2
21
-137
0
LINE
8
0
10
137.2
20
-137
11
123.2
21
-137
0
LINE
8
0
10
123.2
20
-137
11
123.2
21
-151
0
LINE
8
0
10
123.2
20
-130.95
11
137.2
21
-130.95
0
LINE
8
0
10
137.2
20
-130.95
11
137.2
21
-116.95
0
LINE
8
0
10
137.2
20
-116.95
11
123.2
21
-116.95
0
LINE
8
0
10
123.2
20
-116.95
11
123.2
21
-130.95
0
LINE
8
0
10
123.2
20
-110.9
11
137.2
21
-110.9
0
LINE
8
0
10
137.2
20
-110.9
11
137.2
21
-96.9
0
LINE
8
0
10
137.2
20
-96.9
11
123.2
21
-96.9
0
LINE
8
0
10
123.2
20
-96.9
11
123.2
21
-110.9
0
LINE
8
0
10
123.2
20
-90.85
11
137.2
21
-90.85
0
LINE
8
0
10
137.2
20
-90.85
11
137.2
21
-76.85
0
LINE
8
0
10
137.2
20
-76.85
11
123.2
21
-76.85
0
LINE
8
0
10
123.2
20
-76.85
11
123.2
21
-90.85
0
LINE
8
0
10
143.25
20
-133.95
11
157.25
21
-133.95
0
LINE
8
0
10
157.25
20
-133.95
11
157.25
21
-119.95
0
LINE
8
0
10
157.25
20
-119.95
11
143.25
21
-119.95
0
LINE
8
0
10
143.25
20
-119.95
11
143.25
21
-133.95
0
LINE
8
0
10
143.25
20
-113.9
11
157.25
21
-113.9
0
LINE
8
0
10
157.25
20
-113.9
11
157.25
21
-99.9
0
LINE
8
0
10
157.25
20
-99.9
11
143.25
21
-99.9
0
LINE
8
0
10
143.25
20
-99.9
11
143.25
21
-113.9
0
LINE
8
0
10
143.25
20
-93.85
11
157.25
21
-93.85
0
LINE
8
0
10
157.25
20
-93.85
11
157.25
21
-79.85
0
LINE
8
0
10
157.25
20
-79.85
11
143.25
21
-79.85
0
LINE
8
0
10
143.25
20
-79.85
11
143.25
21
-93.85
0
LINE
8
0
10
155.2780107
20
-163.1837073
11
168.4337073
21
-167.9719893
0
LINE
8
0
10
168.4337073
20
-167.9719893
11
173.2219893
21
-154.8162927
0
LINE
8
0
10
173.2219893
20
-154.8162927
11
160.0662927
21
-150.0280107
0
LINE
8
0
10
160.0662927
20
-150.0280107
11
155.2780107
21
-163.1837073
0
LINE
8
0
10
174.1188477
20
-170.0412112
11
187.2745443
21
-174.8294932
0
LINE
8
0
10
187.2745443
20
-174.8294932
11
192.0628263
21
-161.6737966
0
LINE
8
0
10
192.0628263
20
-161.6737966
11
178.9071297
21
-156.8855146
0
LINE
8
0
10
178.9071297
20
-156.8855146
11
174.1188477
21
-170.0412112
0
ENDSEC
0
EOF