0
SECTION
2
HEADER
9
$INSUNITS
70
4
0
ENDSEC
0
SECTION
2
TABLES
0
TABLE
2
LTYPE
0
LTYPE
72
65
70
64
2
CONTINUOUS
3
______
73
0
40
0
0
ENDTAB
0
TABLE
2
LAYER
0
ENDTAB
0
ENDSEC
0
SECTION
2
ENTITIES
0
LINE
8
0
10
37.5
20
-160.5
11
37.5
21
-82.5
0
LINE
8
0
10
39.5
20
-80.5
11
73.5
21
-80.5
0
LINE
8
0
10
75.5
20
-78.5
11
75.5
21
-77.5
0
LINE
8
0
10
77.5
20
-75.5
11
92.5
21
-75.5
0
LINE
8
0
10
94.5
20
-73.5
11
94.5
21
-72.5
0
LINE
8
0
10
94.5
20
-72.5
11
117.5
21
-72.5
0
LINE
8
0
10
119.5
20
-74.5
11
119.5
21
-75.5
0
LINE
8
0
10
121.5
20
-77.5
11
155.5
21
-77.5
0
LINE
8
0
10
157.5
20
-79.5
11
157.5
21
-141.088892
0
LINE
8
0
10
158.1874514
20
-142.5979368
11
186.682734
21
-167.3827842
0
LINE
8
0
10
186.9022742
20
-170.1774043
11
173.38113
21
-186.2912764
0
LINE
8
0
10
170.5634659
20
-186.5377901
11
138.9392021
21
-160.0018819
0
LINE
8
0
10
137.6721747
20
-159.5340568
11
134.009273
21
-159.500086
0
LINE
8
0
10
133.9907252
20
-159.5
11
83.5
21
-159.5
0
LINE
8
0
10
81.5
20
-161.5
11
81.5
21
-162.5
0
LINE
8
0
10
39.5
20
-162.5
11
81.5
21
-162.5
0
ARC
8
0
10
39.5
20
-82.5
40
2
50
90
51
180
0
ARC
8
0
10
73.5
20
-78.5
40
2
50
270
51
0
0
ARC
8
0
10
77.5
20
-77.5
40
2
50
90
51
180
0
ARC
8
0
10
92.5
20
-73.5
40
2
50
270
51
0
0
ARC
8
0
10
117.5
20
-74.5
40
2
50
0
51
90
0
ARC
8
0
10
121.5
20
-75.5
40
2
50
180
51
270
0
ARC
8
0
10
155.5
20
-79.5
40
2
50
0
51
90
0
ARC
8
0
10
159.5
20
-141.088892
40
2
50
180
51
228.9836553
0
ARC
8
0
10
185.3701854
20
-168.891829
40
2
50
319.9999988
51
48.9836553
0
ARC
8
0
10
171.8490411
20
-185.0057012
40
2
50
229.9999988
51
319.9999988
0
ARC
8
0
10
137.6536269
20
-161.5339708
40
2
50
49.9999988
51
89.4686371
0
ARC
8
0
10
133.9907252
20
-161.5
40
2
50
89.4686371
51
90
0
ARC
8
0
10
83.5
20
-161.5
40
2
50
90
51
180
0
ARC
8
0
10
39.5
20
-160.5
40
2
50
180
51
270
0
LINE
8
0
10
43
20
-157
11
57
21
-157
0
LINE
8
0
10
57
20
-157
11
57
21
-143
0
LINE
8
0
10
57
20
-143
11
43
21
-143
0
LINE
8
0
10
43
20
-143
11
43
21
-157
0
LINE
8
0
10
43
20
-138
11
57
21
-138
0
LINE
8
0
10
57
20
-138
11
57
21
-124
0
LINE
8
0
10
57
20
-124
11
43
21
-124
0
LINE
8
0
10
43
20
-124
11
43
21
-138
0
LINE
8
0
10
43
20
-119
11
57
21
-119
0
LINE
8
0
10
57
20
-119
11
57
21
-105
0
LINE
8
0
10
57
20
-105
11
43
21
-105
0
LINE
8
0
10
43
20
-105
11
43
21
-119
0
LINE
8
0
10
43
20
-100
11
57
21
-100
0
LINE
8
0
10
57
20
-100
11
57
21
-86
0
LINE
8
0
10
57
20
-86
11
43
21
-86
0
LINE
8
0
10
43
20
-86
11
43
21
-100
0
LINE
8
0
10
62
20
-157
11
76
21
-157
0
LINE
8
0
10
76
20
-157
11
76
21
-143
0
LINE
8
0
10
76
20
-143
11
62
21
-143
0
LINE
8
0
10
62
20
-143
11
62
21
-157
0
LINE
8
0
10
62
20
-138
11
76
21
-138
0
LINE
8
0
10
76
20
-138
11
76
21
-124
0
LINE
8
0
10
76
20
-124
11
62
21
-124
0
LINE
8
0
10
62
20
-124
11
62
21
-138
0
LINE
8
0
10
62
20
-119
11
76
21
-119
0
LINE
8
0
10
76
20
-119
11
76
21
-105
0
LINE
8
0
10
76
20
-105
11
62
21
-105
0
LINE
8
0
10
62
20
-105
11
62
21
-119
0
LINE
8
0
10
62
20
-100
11
76
21
-100
0
LINE
8
0
10
76
20
-100
11
76
21
-86
0
LINE
8
0
10
76
20
-86
11
62
21
-86
0
LINE
8
0
10
62
20
-86
11
62
21
-100
0
LINE
8
0
10
81
20
-152
11
95
21
-152
0
LINE
8
0
10
95
20
-152
11
95
21
-138
0
LINE
8
0
10
95
20
-138
11
81
21
-138
0
LINE
8
0
10
81
20
-138
11
81
21
-152
0
LINE
8
0
10
81
20
-133
11
95
21
-133
0
LINE
8
0
10
95
20
-133
11
95
21
-119
0
LINE
8
0
10
95
20
-119
11
81
21
-119
0
LINE
8
0
10
81
20
-119
11
81
21
-133
0
LINE
8
0
10
81
20
-114
11
95
21
-114
0
LINE
8
0
10
95
20
-114
11
95
21
-100
0
LINE
8
0
10
95
20
-100
11
81
21
-100
0
LINE
8
0
10
81
20
-100
11
81
21
-114
0
LINE
8
0
10
81
20
-95
11
95
21
-95
0
LINE
8
0
10
95
20
-95
11
95
21
-81
0
LINE
8
0
10
95
20
-81
11
81
21
-81
0
LINE
8
0
10
81
20
-81
11
81
21
-95
0
LINE
8
0
10
100
20
-149
11
114
21
-149
0
LINE
8
0
10
114
20
-149
11
114
21
-135
0
LINE
8
0
10
114
20
-135
11
100
21
-135
0
LINE
8
0
10
100
20
-135
11
100
21
-149
0
LINE
8
0
10
100
20
-130
11
114
21
-130
0
LINE
8
0
10
114
20
-130
11
114
21
-116
0
LINE
8
0
10
114
20
-116
11
100
21
-116
0
LINE
8
0
10
100
20
-116
11
100
21
-130
0
LINE
8
0
10
100
20
-111
11
114
21
-111
0
LINE
8
0
10
114
20
-111
11
114
21
-97
0
LINE
8
0
10
114
20
-97
11
100
21
-97
0
LINE
8
0
10
100
20
-97
11
100
21
-111
0
LINE
8
0
10
100
20
-92
11
114
21
-92
0
LINE
8
0
10
114
20
-92
11
114
21
-78
0
LINE
8
0
10
114
20
-78
11
100
21
-78
0
LINE
8
0
10
100
20
-78
11
100
21
-92
0
LINE
8
0
10
119
20
-154
11
133
21
-154
0
LINE
8
0
10
133
20
-154
11
133
21
-140
0
LINE
8
0
10
133
20
-140
11
119
21
-140
0
LINE
8
0
10
119
20
-140
11
119
21
-154
0
LINE
8
0
10
119
20
-135
11
133
21
-135
0
LINE
8
0
10
133
20
-135
11
133
21
-121
0
LINE
8
0
10
133
20
-121
11
119
21
-121
0
LINE
8
0
10
119
20
-121
11
119
21
-135
0
LINE
8
0
10
119
20
-116
11
133
21
-116
0
LINE
8
0
10
133
20
-116
11
133
21
-102
0
LINE
8
0
10
133
20
-102
11
119
21
-102
0
LINE
8
0
10
119
20
-102
11
119
21
-116
0
LINE
8
0
10
119
20
-97
11
133
21
-97
0
LINE
8
0
10
133
20
-97
11
133
21
-83
0
LINE
8
0
10
133
20
-83
11
119
21
-83
0
LINE
8
0
10
119
20
-83
11
119
21
-97
0
LINE
8
0
10
138
20
-137
11
152
21
-137
0
LINE
8
0
10
152
20
-137
11
152
21
-123
0
LINE
8
0
10
152
20
-123
11
138
21
-123
0
LINE
8
0
10
138
20
-123
11
138
21
-137
0
LINE
8
0
10
138
20
-118
11
152
21
-118
0
LINE
8
0
10
152
20
-118
11
152
21
-104
0
LINE
8
0
10
152
20
-104
11
138
21
-104
0
LINE
8
0
10
138
20
-104
11
138
21
-118
0
LINE
8
0
10
138
20
-99
11
152
21
-99
0
LINE
8
0
10
152
20
-99
11
152
21
-85
0
LINE
8
0
10
152
20
-85
11
138
21
-85
0
LINE
8
0
10
138
20
-85
11
138
21
-99
0
LINE
8
0
10
146.1381756
20
-158.8627978
11
156.8627978
21
-167.8618244
0
LINE
8
0
10
156.8627978
20
-167.8618244
11
165.8618244
21
-157.1372022
0
LINE
8
0
10
165.8618244
20
-157.1372022
11
155.1372022
21
-148.1381756
0
LINE
8
0
10
155.1372022
20
-148.1381756
11
146.1381756
21
-158.8627978
0
LINE
8
0
10
160.69302
20
-171.0757624
11
171.4176422
21
-180.074789
0
LINE
8
0
10
171.4176422
20
-180.074789
11
180.4166688
21
-169.3501668
0
LINE
8
0
10
180.4166688
20
-169.3501668
11
169.6920466
21
-160.3511402
0
LINE
8
0
10
169.6920466
20
-160.3511402
11
160.69302
21
-171.0757624
0
ENDSEC
0
EOF