0
SECTION
2
HEADER
9
$INSUNITS
70
4
0
ENDSEC
0
SECTION
2
TABLES
0
TABLE
2
LTYPE
0
LTYPE
72
65
70
64
2
CONTINUOUS
3
______
73
0
40
0
0
ENDTAB
0
TABLE
2
LAYER
0
ENDTAB
0
ENDSEC
0
SECTION
2
ENTITIES
0
LINE
8
0
10
36.475
20
-161.525
11
36.475
21
-78.325
0
LINE
8
0
10
38.475
20
-76.325
11
74.575
21
-76.325
0
LINE
8
0
10
76.575
20
-74.325
11
76.575
21
-70.325
0
LINE
8
0
10
78.575
20
-68.325
11
94.625
21
-68.325
0
LINE
8
0
10
96.625
20
-66.325
11
96.625
21
-65.325
0
LINE
8
0
10
98.625
20
-63.325
11
121.675
21
-63.325
0
LINE
8
0
10
123.675
20
-65.325
11
123.675
21
-68.325
0
LINE
8
0
10
125.675
20
-70.325
11
161.775
21
-70.325
0
LINE
8
0
10
163.775
20
-72.325
11
163.775
21
-137.0958011
0
LINE
8
0
10
165.0641416
20
-138.9652075
11
200.2975284
21
-152.3630145
0
LINE
8
0
10
201.4660553
20
-154.9164611
11
190.1440216
21
-186.023493
0
LINE
8
0
10
187.5805962
20
-187.218838
11
145.990295
21
-172.0812063
0
LINE
8
0
10
144.853106
20
-171.0283345
11
139.2575537
21
-158.6984866
0
LINE
8
0
10
137.4363245
20
-157.525
11
85.575
21
-157.525
0
LINE
8
0
10
83.575
20
-159.525
11
83.575
21
-161.525
0
LINE
8
0
10
38.475
20
-163.525
11
81.575
21
-163.525
0
ARC
8
0
10
38.475
20
-78.325
40
2
50
90
51
180
0
ARC
8
0
10
74.575
20
-74.325
40
2
50
270
51
0
0
ARC
8
0
10
78.575
20
-70.325
40
2
50
90
51
180
0
ARC
8
0
10
94.625
20
-66.325
40
2
50
270
51
0
0
ARC
8
0
10
98.625
20
-65.325
40
2
50
90
51
180
0
ARC
8
0
10
121.675
20
-65.325
40
2
50
0
51
90
0
ARC
8
0
10
125.675
20
-68.325
40
2
50
180
51
270
0
ARC
8
0
10
161.775
20
-72.325
40
2
50
0
51
90
0
ARC
8
0
10
165.775
20
-137.0958011
40
2
50
180
51
249.1802485
0
ARC
8
0
10
199.5866701
20
-154.2324209
40
2
50
340.0000019
51
69.1802485
0
ARC
8
0
10
188.2646364
20
-185.3394528
40
2
50
250.0000019
51
340.0000019
0
ARC
8
0
10
146.6743352
20
-170.2018211
40
2
50
204.4095798
51
250.0000019
0
ARC
8
0
10
137.4363245
20
-159.525
40
2
50
24.4095798
51
90
0
ARC
8
0
10
85.575
20
-159.525
40
2
50
90
51
180
0
ARC
8
0
10
81.575
20
-161.525
40
2
50
270
51
0
0
ARC
8
0
10
38.475
20
-161.525
40
2
50
180
51
270
0
LINE
8
0
10
43
20
-157
11
57
21
-157
0
LINE
8
0
10
57
20
-157
11
57
21
-143
0
LINE
8
0
10
57
20
-143
11
43
21
-143
0
LINE
8
0
10
43
20
-143
11
43
21
-157
0
LINE
8
0
10
43
20
-136.95
11
57
21
-136.95
0
LINE
8
0
10
57
20
-136.95
11
57
21
-122.95
0
LINE
8
0
10
57
20
-122.95
11
43
21
-122.95
0
LINE
8
0
10
43
20
-122.95
11
43
21
-136.95
0
LINE
8
0
10
43
20
-116.9
11
57
21
-116.9
0
LINE
8
0
10
57
20
-116.9
11
57
21
-102.9
0
LINE
8
0
10
57
20
-102.9
11
43
21
-102.9
0
LINE
8
0
10
43
20
-102.9
11
43
21
-116.9
0
LINE
8
0
10
43
20
-96.85
11
57
21
-96.85
0
LINE
8
0
10
57
20
-96.85
11
57
21
-82.85
0
LINE
8
0
10
57
20
-82.85
11
43
21
-82.85
0
LINE
8
0
10
43
20
-82.85
11
43
21
-96.85
0
LINE
8
0
10
63.05
20
-157
11
77.05
21
-157
0
LINE
8
0
10
77.05
20
-157
11
77.05
21
-143
0
LINE
8
0
10
77.05
20
-143
11
63.05
21
-143
0
LINE
8
0
10
63.05
20
-143
11
63.05
21
-157
0
LINE
8
0
10
63.05
20
-136.95
11
77.05
21
-136.95
0
LINE
8
0
10
77.05
20
-136.95
11
77.05
21
-122.95
0
LINE
8
0
10
77.05
20
-122.95
11
63.05
21
-122.95
0
LINE
8
0
10
63.05
20
-122.95
11
63.05
21
-136.95
0
LINE
8
0
10
63.05
20
-116.9
11
77.05
21
-116.9
0
LINE
8
0
10
77.05
20
-116.9
11
77.05
21
-102.9
0
LINE
8
0
10
77.05
20
-102.9
11
63.05
21
-102.9
0
LINE
8
0
10
63.05
20
-102.9
11
63.05
21
-116.9
0
LINE
8
0
10
63.05
20
-96.85
11
77.05
21
-96.85
0
LINE
8
0
10
77.05
20
-96.85
11
77.05
21
-82.85
0
LINE
8
0
10
77.05
20
-82.85
11
63.05
21
-82.85
0
LINE
8
0
10
63.05
20
-82.85
11
63.05
21
-96.85
0
LINE
8
0
10
83.1
20
-149
11
97.1
21
-149
0
LINE
8
0
10
97.1
20
-149
11
97.1
21
-135
0
LINE
8
0
10
97.1
20
-135
11
83.1
21
-135
0
LINE
8
0
10
83.1
20
-135
11
83.1
21
-149
0
LINE
8
0
10
83.1
20
-128.95
11
97.1
21
-128.95
0
LINE
8
0
10
97.1
20
-128.95
11
97.1
21
-114.95
0
LINE
8
0
10
97.1
20
-114.95
11
83.1
21
-114.95
0
LINE
8
0
10
83.1
20
-114.95
11
83.1
21
-128.95
0
LINE
8
0
10
83.1
20
-108.9
11
97.1
21
-108.9
0
LINE
8
0
10
97.1
20
-108.9
11
97.1
21
-94.9
0
LINE
8
0
10
97.1
20
-94.9
11
83.1
21
-94.9
0
LINE
8
0
10
83.1
20
-94.9
11
83.1
21
-108.9
0
LINE
8
0
10
83.1
20
-88.85
11
97.1
21
-88.85
0
LINE
8
0
10
97.1
20
-88.85
11
97.1
21
-74.85
0
LINE
8
0
10
97.1
20
-74.85
11
83.1
21
-74.85
0
LINE
8
0
10
83.1
20
-74.85
11
83.1
21
-88.85
0
LINE
8
0
10
103.15
20
-144
11
117.15
21
-144
0
LINE
8
0
10
117.15
20
-144
11
117.15
21
-130
0
LINE
8
0
10
117.15
20
-130
11
103.15
21
-130
0
LINE
8
0
10
103.15
20
-130
11
103.15
21
-144
0
LINE
8
0
10
103.15
20
-123.95
11
117.15
21
-123.95
0
LINE
8
0
10
117.15
20
-123.95
11
117.15
21
-109.95
0
LINE
8
0
10
117.15
20
-109.95
11
103.15
21
-109.95
0
LINE
8
0
10
103.15
20
-109.95
11
103.15
21
-123.95
0
LINE
8
0
10
103.15
20
-103.9
11
117.15
21
-103.9
0
LINE
8
0
10
117.15
20
-103.9
11
117.15
21
-89.9
0
LINE
8
0
10
117.15
20
-89.9
11
103.15
21
-89.9
0
LINE
8
0
10
103.15
20
-89.9
11
103.15
21
-103.9
0
LINE
8
0
10
103.15
20
-83.85
11
117.15
21
-83.85
0
LINE
8
0
10
117.15
20
-83.85
11
117.15
21
-69.85
0
LINE
8
0
10
117.15
20
-69.85
11
103.15
21
-69.85
0
LINE
8
0
10
103.15
20
-69.85
11
103.15
21
-83.85
0
LINE
8
0
10
123.2
20
-151
11
137.2
21
-151
0
LINE
8
0
10
137.2
20
-151
11
137.2
21
-137
0
LINE
8
0
10
137.2
20
-137
11
123.2
21
-137
0
LINE
8
0
10
123.2
20
-137
11
123.2
21
-151
0
LINE
8
0
10
123.2
20
-130.95
11
137.2
21
-130.95
0
LINE
8
0
10
137.2
20
-130.95
11
137.2
21
-116.95
0
LINE
8
0
10
137.2
20
-116.95
11
123.2
21
-116.95
0
LINE
8
0
10
123.2
20
-116.95
11
123.2
21
-130.95
0
LINE
8
0
10
123.2
20
-110.9
11
137.2
21
-110.9
0
LINE
8
0
10
137.2
20
-110.9
11
137.2
21
-96.9
0
LINE
8
0
10
137.2
20
-96.9
11
123.2
21
-96.9
0
LINE
8
0
10
123.2
20
-96.9
11
123.2
21
-110.9
0
LINE
8
0
10
123.2
20
-90.85
11
137.2
21
-90.85
0
LINE
8
0
10
137.2
20
-90.85
11
137.2
21
-76.85
0
LINE
8
0
10
137.2
20
-76.85
11
123.2
21
-76.85
0
LINE
8
0
10
123.2
20
-76.85
11
123.2
21
-90.85
0
LINE
8
0
10
143.25
20
-133.95
11
157.25
21
-133.95
0
LINE
8
0
10
157.25
20
-133.95
11
157.25
21
-119.95
0
LINE
8
0
10
157.25
20
-119.95
11
143.25
21
-119.95
0
LINE
8
0
10
143.25
20
-119.95
11
143.25
21
-133.95
0
LINE
8
0
10
143.25
20
-113.9
11
157.25
21
-113.9
0
LINE
8
0
10
157.25
20
-113.9
11
157.25
21
-99.9
0
LINE
8
0
10
157.25
20
-99.9
11
143.25
21
-99.9
0
LINE
8
0
10
143.25
20
-99.9
11
143.25
21
-113.9
0
LINE
8
0
10
143.25
20
-93.85
11
157.25
21
-93.85
0
LINE
8
0
10
157.25
20
-93.85
11
157.25
21
-79.85
0
LINE
8
0
10
157.25
20
-79.85
11
143.25
21
-79.85
0
LINE
8
0
10
143.25
20
-79.85
11
143.25
21
-93.85
0
LINE
8
0
10
155.2780107
20
-163.1837073
11
168.4337073
21
-167.9719893
0
LINE
8
0
10
168.4337073
20
-167.9719893
11
173.2219893
21
-154.8162927
0
LINE
8
0
10
173.2219893
20
-154.8162927
11
160.0662927
21
-150.0280107
0
LINE
8
0
10
160.0662927
20
-150.0280107
11
155.2780107
21
-163.1837073
0
LINE
8
0
10
174.1188477
20
-170.0412112
11
187.2745443
21
-174.8294932
0
LINE
8
0
10
187.2745443
20
-174.8294932
11
192.0628263
21
-161.6737966
0
LINE
8
0
10
192.0628263
20
-161.6737966
11
178.9071297
21
-156.8855146
0
LINE
8
0
10
178.9071297
20
-156.8855146
11
174.1188477
21
-170.0412112
0
ENDSEC
0
EOF