0
SECTION
2
HEADER
9
$INSUNITS
70
4
0
ENDSEC
0
SECTION
2
TABLES
0
TABLE
2
LTYPE
0
LTYPE
72
65
70
64
2
CONTINUOUS
3
______
73
0
40
0
0
ENDTAB
0
TABLE
2
LAYER
0
ENDTAB
0
ENDSEC
0
SECTION
2
ENTITIES
0
LINE
8
0
10
43
20
-157
11
57
21
-157
0
LINE
8
0
10
57
20
-157
11
57
21
-143
0
LINE
8
0
10
57
20
-143
11
43
21
-143
0
LINE
8
0
10
43
20
-143
11
43
21
-157
0
LINE
8
0
10
43
20
-138
11
57
21
-138
0
LINE
8
0
10
57
20
-138
11
57
21
-124
0
LINE
8
0
10
57
20
-124
11
43
21
-124
0
LINE
8
0
10
43
20
-124
11
43
21
-138
0
LINE
8
0
10
43
20
-119
11
57
21
-119
0
LINE
8
0
10
57
20
-119
11
57
21
-105
0
LINE
8
0
10
57
20
-105
11
43
21
-105
0
LINE
8
0
10
43
20
-105
11
43
21
-119
0
LINE
8
0
10
43
20
-100
11
57
21
-100
0
LINE
8
0
10
57
20
-100
11
57
21
-86
0
LINE
8
0
10
57
20
-86
11
43
21
-86
0
LINE
8
0
10
43
20
-86
11
43
21
-100
0
LINE
8
0
10
62
20
-157
11
76
21
-157
0
LINE
8
0
10
76
20
-157
11
76
21
-143
0
LINE
8
0
10
76
20
-143
11
62
21
-143
0
LINE
8
0
10
62
20
-143
11
62
21
-157
0
LINE
8
0
10
62
20
-138
11
76
21
-138
0
LINE
8
0
10
76
20
-138
11
76
21
-124
0
LINE
8
0
10
76
20
-124
11
62
21
-124
0
LINE
8
0
10
62
20
-124
11
62
21
-138
0
LINE
8
0
10
62
20
-119
11
76
21
-119
0
LINE
8
0
10
76
20
-119
11
76
21
-105
0
LINE
8
0
10
76
20
-105
11
62
21
-105
0
LINE
8
0
10
62
20
-105
11
62
21
-119
0
LINE
8
0
10
62
20
-100
11
76
21
-100
0
LINE
8
0
10
76
20
-100
11
76
21
-86
0
LINE
8
0
10
76
20
-86
11
62
21
-86
0
LINE
8
0
10
62
20
-86
11
62
21
-100
0
LINE
8
0
10
81
20
-152
11
95
21
-152
0
LINE
8
0
10
95
20
-152
11
95
21
-138
0
LINE
8
0
10
95
20
-138
11
81
21
-138
0
LINE
8
0
10
81
20
-138
11
81
21
-152
0
LINE
8
0
10
81
20
-133
11
95
21
-133
0
LINE
8
0
10
95
20
-133
11
95
21
-119
0
LINE
8
0
10
95
20
-119
11
81
21
-119
0
LINE
8
0
10
81
20
-119
11
81
21
-133
0
LINE
8
0
10
81
20
-114
11
95
21
-114
0
LINE
8
0
10
95
20
-114
11
95
21
-100
0
LINE
8
0
10
95
20
-100
11
81
21
-100
0
LINE
8
0
10
81
20
-100
11
81
21
-114
0
LINE
8
0
10
81
20
-95
11
95
21
-95
0
LINE
8
0
10
95
20
-95
11
95
21
-81
0
LINE
8
0
10
95
20
-81
11
81
21
-81
0
LINE
8
0
10
81
20
-81
11
81
21
-95
0
LINE
8
0
10
100
20
-149
11
114
21
-149
0
LINE
8
0
10
114
20
-149
11
114
21
-135
0
LINE
8
0
10
114
20
-135
11
100
21
-135
0
LINE
8
0
10
100
20
-135
11
100
21
-149
0
LINE
8
0
10
100
20
-130
11
114
21
-130
0
LINE
8
0
10
114
20
-130
11
114
21
-116
0
LINE
8
0
10
114
20
-116
11
100
21
-116
0
LINE
8
0
10
100
20
-116
11
100
21
-130
0
LINE
8
0
10
100
20
-111
11
114
21
-111
0
LINE
8
0
10
114
20
-111
11
114
21
-97
0
LINE
8
0
10
114
20
-97
11
100
21
-97
0
LINE
8
0
10
100
20
-97
11
100
21
-111
0
LINE
8
0
10
100
20
-92
11
114
21
-92
0
LINE
8
0
10
114
20
-92
11
114
21
-78
0
LINE
8
0
10
114
20
-78
11
100
21
-78
0
LINE
8
0
10
100
20
-78
11
100
21
-92
0
LINE
8
0
10
119
20
-154
11
133
21
-154
0
LINE
8
0
10
133
20
-154
11
133
21
-140
0
LINE
8
0
10
133
20
-140
11
119
21
-140
0
LINE
8
0
10
119
20
-140
11
119
21
-154
0
LINE
8
0
10
119
20
-135
11
133
21
-135
0
LINE
8
0
10
133
20
-135
11
133
21
-121
0
LINE
8
0
10
133
20
-121
11
119
21
-121
0
LINE
8
0
10
119
20
-121
11
119
21
-135
0
LINE
8
0
10
119
20
-116
11
133
21
-116
0
LINE
8
0
10
133
20
-116
11
133
21
-102
0
LINE
8
0
10
133
20
-102
11
119
21
-102
0
LINE
8
0
10
119
20
-102
11
119
21
-116
0
LINE
8
0
10
119
20
-97
11
133
21
-97
0
LINE
8
0
10
133
20
-97
11
133
21
-83
0
LINE
8
0
10
133
20
-83
11
119
21
-83
0
LINE
8
0
10
119
20
-83
11
119
21
-97
0
LINE
8
0
10
138
20
-137
11
152
21
-137
0
LINE
8
0
10
152
20
-137
11
152
21
-123
0
LINE
8
0
10
152
20
-123
11
138
21
-123
0
LINE
8
0
10
138
20
-123
11
138
21
-137
0
LINE
8
0
10
138
20
-118
11
152
21
-118
0
LINE
8
0
10
152
20
-118
11
152
21
-104
0
LINE
8
0
10
152
20
-104
11
138
21
-104
0
LINE
8
0
10
138
20
-104
11
138
21
-118
0
LINE
8
0
10
138
20
-99
11
152
21
-99
0
LINE
8
0
10
152
20
-99
11
152
21
-85
0
LINE
8
0
10
152
20
-85
11
138
21
-85
0
LINE
8
0
10
138
20
-85
11
138
21
-99
0
LINE
8
0
10
146.1381756
20
-158.8627978
11
156.8627978
21
-167.8618244
0
LINE
8
0
10
156.8627978
20
-167.8618244
11
165.8618244
21
-157.1372022
0
LINE
8
0
10
165.8618244
20
-157.1372022
11
155.1372022
21
-148.1381756
0
LINE
8
0
10
155.1372022
20
-148.1381756
11
146.1381756
21
-158.8627978
0
LINE
8
0
10
160.69302
20
-171.0757624
11
171.4176422
21
-180.074789
0
LINE
8
0
10
171.4176422
20
-180.074789
11
180.4166688
21
-169.3501668
0
LINE
8
0
10
180.4166688
20
-169.3501668
11
169.6920466
21
-160.3511402
0
LINE
8
0
10
169.6920466
20
-160.3511402
11
160.69302
21
-171.0757624
0
LINE
8
0
10
347
20
-157
11
361
21
-157
0
LINE
8
0
10
361
20
-157
11
361
21
-143
0
LINE
8
0
10
361
20
-143
11
347
21
-143
0
LINE
8
0
10
347
20
-143
11
347
21
-157
0
LINE
8
0
10
347
20
-138
11
361
21
-138
0
LINE
8
0
10
361
20
-138
11
361
21
-124
0
LINE
8
0
10
361
20
-124
11
347
21
-124
0
LINE
8
0
10
347
20
-124
11
347
21
-138
0
LINE
8
0
10
347
20
-119
11
361
21
-119
0
LINE
8
0
10
361
20
-119
11
361
21
-105
0
LINE
8
0
10
361
20
-105
11
347
21
-105
0
LINE
8
0
10
347
20
-105
11
347
21
-119
0
LINE
8
0
10
347
20
-100
11
361
21
-100
0
LINE
8
0
10
361
20
-100
11
361
21
-86
0
LINE
8
0
10
361
20
-86
11
347
21
-86
0
LINE
8
0
10
347
20
-86
11
347
21
-100
0
LINE
8
0
10
328
20
-157
11
342
21
-157
0
LINE
8
0
10
342
20
-157
11
342
21
-143
0
LINE
8
0
10
342
20
-143
11
328
21
-143
0
LINE
8
0
10
328
20
-143
11
328
21
-157
0
LINE
8
0
10
328
20
-138
11
342
21
-138
0
LINE
8
0
10
342
20
-138
11
342
21
-124
0
LINE
8
0
10
342
20
-124
11
328
21
-124
0
LINE
8
0
10
328
20
-124
11
328
21
-138
0
LINE
8
0
10
328
20
-119
11
342
21
-119
0
LINE
8
0
10
342
20
-119
11
342
21
-105
0
LINE
8
0
10
342
20
-105
11
328
21
-105
0
LINE
8
0
10
328
20
-105
11
328
21
-119
0
LINE
8
0
10
328
20
-100
11
342
21
-100
0
LINE
8
0
10
342
20
-100
11
342
21
-86
0
LINE
8
0
10
342
20
-86
11
328
21
-86
0
LINE
8
0
10
328
20
-86
11
328
21
-100
0
LINE
8
0
10
309
20
-152
11
323
21
-152
0
LINE
8
0
10
323
20
-152
11
323
21
-138
0
LINE
8
0
10
323
20
-138
11
309
21
-138
0
LINE
8
0
10
309
20
-138
11
309
21
-152
0
LINE
8
0
10
309
20
-133
11
323
21
-133
0
LINE
8
0
10
323
20
-133
11
323
21
-119
0
LINE
8
0
10
323
20
-119
11
309
21
-119
0
LINE
8
0
10
309
20
-119
11
309
21
-133
0
LINE
8
0
10
309
20
-114
11
323
21
-114
0
LINE
8
0
10
323
20
-114
11
323
21
-100
0
LINE
8
0
10
323
20
-100
11
309
21
-100
0
LINE
8
0
10
309
20
-100
11
309
21
-114
0
LINE
8
0
10
309
20
-95
11
323
21
-95
0
LINE
8
0
10
323
20
-95
11
323
21
-81
0
LINE
8
0
10
323
20
-81
11
309
21
-81
0
LINE
8
0
10
309
20
-81
11
309
21
-95
0
LINE
8
0
10
290
20
-149
11
304
21
-149
0
LINE
8
0
10
304
20
-149
11
304
21
-135
0
LINE
8
0
10
304
20
-135
11
290
21
-135
0
LINE
8
0
10
290
20
-135
11
290
21
-149
0
LINE
8
0
10
290
20
-130
11
304
21
-130
0
LINE
8
0
10
304
20
-130
11
304
21
-116
0
LINE
8
0
10
304
20
-116
11
290
21
-116
0
LINE
8
0
10
290
20
-116
11
290
21
-130
0
LINE
8
0
10
290
20
-111
11
304
21
-111
0
LINE
8
0
10
304
20
-111
11
304
21
-97
0
LINE
8
0
10
304
20
-97
11
290
21
-97
0
LINE
8
0
10
290
20
-97
11
290
21
-111
0
LINE
8
0
10
290
20
-92
11
304
21
-92
0
LINE
8
0
10
304
20
-92
11
304
21
-78
0
LINE
8
0
10
304
20
-78
11
290
21
-78
0
LINE
8
0
10
290
20
-78
11
290
21
-92
0
LINE
8
0
10
271
20
-154
11
285
21
-154
0
LINE
8
0
10
285
20
-154
11
285
21
-140
0
LINE
8
0
10
285
20
-140
11
271
21
-140
0
LINE
8
0
10
271
20
-140
11
271
21
-154
0
LINE
8
0
10
271
20
-135
11
285
21
-135
0
LINE
8
0
10
285
20
-135
11
285
21
-121
0
LINE
8
0
10
285
20
-121
11
271
21
-121
0
LINE
8
0
10
271
20
-121
11
271
21
-135
0
LINE
8
0
10
271
20
-116
11
285
21
-116
0
LINE
8
0
10
285
20
-116
11
285
21
-102
0
LINE
8
0
10
285
20
-102
11
271
21
-102
0
LINE
8
0
10
271
20
-102
11
271
21
-116
0
LINE
8
0
10
271
20
-97
11
285
21
-97
0
LINE
8
0
10
285
20
-97
11
285
21
-83
0
LINE
8
0
10
285
20
-83
11
271
21
-83
0
LINE
8
0
10
271
20
-83
11
271
21
-97
0
LINE
8
0
10
252
20
-137
11
266
21
-137
0
LINE
8
0
10
266
20
-137
11
266
21
-123
0
LINE
8
0
10
266
20
-123
11
252
21
-123
0
LINE
8
0
10
252
20
-123
11
252
21
-137
0
LINE
8
0
10
252
20
-118
11
266
21
-118
0
LINE
8
0
10
266
20
-118
11
266
21
-104
0
LINE
8
0
10
266
20
-104
11
252
21
-104
0
LINE
8
0
10
252
20
-104
11
252
21
-118
0
LINE
8
0
10
252
20
-99
11
266
21
-99
0
LINE
8
0
10
266
20
-99
11
266
21
-85
0
LINE
8
0
10
266
20
-85
11
252
21
-85
0
LINE
8
0
10
252
20
-85
11
252
21
-99
0
LINE
8
0
10
247.1372022
20
-167.8618244
11
257.8618244
21
-158.8627978
0
LINE
8
0
10
257.8618244
20
-158.8627978
11
248.8627978
21
-148.1381756
0
LINE
8
0
10
248.8627978
20
-148.1381756
11
238.1381756
21
-157.1372022
0
LINE
8
0
10
238.1381756
20
-157.1372022
11
247.1372022
21
-167.8618244
0
LINE
8
0
10
232.5823578
20
-180.074789
11
243.30698
21
-171.0757624
0
LINE
8
0
10
243.30698
20
-171.0757624
11
234.3079534
21
-160.3511402
0
LINE
8
0
10
234.3079534
20
-160.3511402
11
223.5833312
21
-169.3501668
0
LINE
8
0
10
223.5833312
20
-169.3501668
11
232.5823578
21
-180.074789
0
ENDSEC
0
EOF