0
SECTION
2
HEADER
9
$INSUNITS
70
4
0
ENDSEC
0
SECTION
2
TABLES
0
TABLE
2
LTYPE
0
LTYPE
72
65
70
64
2
CONTINUOUS
3
______
73
0
40
0
0
ENDTAB
0
TABLE
2
LAYER
0
ENDTAB
0
ENDSEC
0
SECTION
2
ENTITIES
0
LINE
8
0
10
43
20
-157
11
57
21
-157
0
LINE
8
0
10
57
20
-157
11
57
21
-143
0
LINE
8
0
10
57
20
-143
11
43
21
-143
0
LINE
8
0
10
43
20
-143
11
43
21
-157
0
LINE
8
0
10
43
20
-136.95
11
57
21
-136.95
0
LINE
8
0
10
57
20
-136.95
11
57
21
-122.95
0
LINE
8
0
10
57
20
-122.95
11
43
21
-122.95
0
LINE
8
0
10
43
20
-122.95
11
43
21
-136.95
0
LINE
8
0
10
43
20
-116.9
11
57
21
-116.9
0
LINE
8
0
10
57
20
-116.9
11
57
21
-102.9
0
LINE
8
0
10
57
20
-102.9
11
43
21
-102.9
0
LINE
8
0
10
43
20
-102.9
11
43
21
-116.9
0
LINE
8
0
10
43
20
-96.85
11
57
21
-96.85
0
LINE
8
0
10
57
20
-96.85
11
57
21
-82.85
0
LINE
8
0
10
57
20
-82.85
11
43
21
-82.85
0
LINE
8
0
10
43
20
-82.85
11
43
21
-96.85
0
LINE
8
0
10
63.05
20
-157
11
77.05
21
-157
0
LINE
8
0
10
77.05
20
-157
11
77.05
21
-143
0
LINE
8
0
10
77.05
20
-143
11
63.05
21
-143
0
LINE
8
0
10
63.05
20
-143
11
63.05
21
-157
0
LINE
8
0
10
63.05
20
-136.95
11
77.05
21
-136.95
0
LINE
8
0
10
77.05
20
-136.95
11
77.05
21
-122.95
0
LINE
8
0
10
77.05
20
-122.95
11
63.05
21
-122.95
0
LINE
8
0
10
63.05
20
-122.95
11
63.05
21
-136.95
0
LINE
8
0
10
63.05
20
-116.9
11
77.05
21
-116.9
0
LINE
8
0
10
77.05
20
-116.9
11
77.05
21
-102.9
0
LINE
8
0
10
77.05
20
-102.9
11
63.05
21
-102.9
0
LINE
8
0
10
63.05
20
-102.9
11
63.05
21
-116.9
0
LINE
8
0
10
63.05
20
-96.85
11
77.05
21
-96.85
0
LINE
8
0
10
77.05
20
-96.85
11
77.05
21
-82.85
0
LINE
8
0
10
77.05
20
-82.85
11
63.05
21
-82.85
0
LINE
8
0
10
63.05
20
-82.85
11
63.05
21
-96.85
0
LINE
8
0
10
83.1
20
-149
11
97.1
21
-149
0
LINE
8
0
10
97.1
20
-149
11
97.1
21
-135
0
LINE
8
0
10
97.1
20
-135
11
83.1
21
-135
0
LINE
8
0
10
83.1
20
-135
11
83.1
21
-149
0
LINE
8
0
10
83.1
20
-128.95
11
97.1
21
-128.95
0
LINE
8
0
10
97.1
20
-128.95
11
97.1
21
-114.95
0
LINE
8
0
10
97.1
20
-114.95
11
83.1
21
-114.95
0
LINE
8
0
10
83.1
20
-114.95
11
83.1
21
-128.95
0
LINE
8
0
10
83.1
20
-108.9
11
97.1
21
-108.9
0
LINE
8
0
10
97.1
20
-108.9
11
97.1
21
-94.9
0
LINE
8
0
10
97.1
20
-94.9
11
83.1
21
-94.9
0
LINE
8
0
10
83.1
20
-94.9
11
83.1
21
-108.9
0
LINE
8
0
10
83.1
20
-88.85
11
97.1
21
-88.85
0
LINE
8
0
10
97.1
20
-88.85
11
97.1
21
-74.85
0
LINE
8
0
10
97.1
20
-74.85
11
83.1
21
-74.85
0
LINE
8
0
10
83.1
20
-74.85
11
83.1
21
-88.85
0
LINE
8
0
10
103.15
20
-144
11
117.15
21
-144
0
LINE
8
0
10
117.15
20
-144
11
117.15
21
-130
0
LINE
8
0
10
117.15
20
-130
11
103.15
21
-130
0
LINE
8
0
10
103.15
20
-130
11
103.15
21
-144
0
LINE
8
0
10
103.15
20
-123.95
11
117.15
21
-123.95
0
LINE
8
0
10
117.15
20
-123.95
11
117.15
21
-109.95
0
LINE
8
0
10
117.15
20
-109.95
11
103.15
21
-109.95
0
LINE
8
0
10
103.15
20
-109.95
11
103.15
21
-123.95
0
LINE
8
0
10
103.15
20
-103.9
11
117.15
21
-103.9
0
LINE
8
0
10
117.15
20
-103.9
11
117.15
21
-89.9
0
LINE
8
0
10
117.15
20
-89.9
11
103.15
21
-89.9
0
LINE
8
0
10
103.15
20
-89.9
11
103.15
21
-103.9
0
LINE
8
0
10
103.15
20
-83.85
11
117.15
21
-83.85
0
LINE
8
0
10
117.15
20
-83.85
11
117.15
21
-69.85
0
LINE
8
0
10
117.15
20
-69.85
11
103.15
21
-69.85
0
LINE
8
0
10
103.15
20
-69.85
11
103.15
21
-83.85
0
LINE
8
0
10
123.2
20
-151
11
137.2
21
-151
0
LINE
8
0
10
137.2
20
-151
11
137.2
21
-137
0
LINE
8
0
10
137.2
20
-137
11
123.2
21
-137
0
LINE
8
0
10
123.2
20
-137
11
123.2
21
-151
0
LINE
8
0
10
123.2
20
-130.95
11
137.2
21
-130.95
0
LINE
8
0
10
137.2
20
-130.95
11
137.2
21
-116.95
0
LINE
8
0
10
137.2
20
-116.95
11
123.2
21
-116.95
0
LINE
8
0
10
123.2
20
-116.95
11
123.2
21
-130.95
0
LINE
8
0
10
123.2
20
-110.9
11
137.2
21
-110.9
0
LINE
8
0
10
137.2
20
-110.9
11
137.2
21
-96.9
0
LINE
8
0
10
137.2
20
-96.9
11
123.2
21
-96.9
0
LINE
8
0
10
123.2
20
-96.9
11
123.2
21
-110.9
0
LINE
8
0
10
123.2
20
-90.85
11
137.2
21
-90.85
0
LINE
8
0
10
137.2
20
-90.85
11
137.2
21
-76.85
0
LINE
8
0
10
137.2
20
-76.85
11
123.2
21
-76.85
0
LINE
8
0
10
123.2
20
-76.85
11
123.2
21
-90.85
0
LINE
8
0
10
143.25
20
-133.95
11
157.25
21
-133.95
0
LINE
8
0
10
157.25
20
-133.95
11
157.25
21
-119.95
0
LINE
8
0
10
157.25
20
-119.95
11
143.25
21
-119.95
0
LINE
8
0
10
143.25
20
-119.95
11
143.25
21
-133.95
0
LINE
8
0
10
143.25
20
-113.9
11
157.25
21
-113.9
0
LINE
8
0
10
157.25
20
-113.9
11
157.25
21
-99.9
0
LINE
8
0
10
157.25
20
-99.9
11
143.25
21
-99.9
0
LINE
8
0
10
143.25
20
-99.9
11
143.25
21
-113.9
0
LINE
8
0
10
143.25
20
-93.85
11
157.25
21
-93.85
0
LINE
8
0
10
157.25
20
-93.85
11
157.25
21
-79.85
0
LINE
8
0
10
157.25
20
-79.85
11
143.25
21
-79.85
0
LINE
8
0
10
143.25
20
-79.85
11
143.25
21
-93.85
0
LINE
8
0
10
155.2780107
20
-163.1837073
11
168.4337073
21
-167.9719893
0
LINE
8
0
10
168.4337073
20
-167.9719893
11
173.2219893
21
-154.8162927
0
LINE
8
0
10
173.2219893
20
-154.8162927
11
160.0662927
21
-150.0280107
0
LINE
8
0
10
160.0662927
20
-150.0280107
11
155.2780107
21
-163.1837073
0
LINE
8
0
10
174.1188477
20
-170.0412112
11
187.2745443
21
-174.8294932
0
LINE
8
0
10
187.2745443
20
-174.8294932
11
192.0628263
21
-161.6737966
0
LINE
8
0
10
192.0628263
20
-161.6737966
11
178.9071297
21
-156.8855146
0
LINE
8
0
10
178.9071297
20
-156.8855146
11
174.1188477
21
-170.0412112
0
LINE
8
0
10
363.8
20
-157
11
377.8
21
-157
0
LINE
8
0
10
377.8
20
-157
11
377.8
21
-143
0
LINE
8
0
10
377.8
20
-143
11
363.8
21
-143
0
LINE
8
0
10
363.8
20
-143
11
363.8
21
-157
0
LINE
8
0
10
363.8
20
-136.95
11
377.8
21
-136.95
0
LINE
8
0
10
377.8
20
-136.95
11
377.8
21
-122.95
0
LINE
8
0
10
377.8
20
-122.95
11
363.8
21
-122.95
0
LINE
8
0
10
363.8
20
-122.95
11
363.8
21
-136.95
0
LINE
8
0
10
363.8
20
-116.9
11
377.8
21
-116.9
0
LINE
8
0
10
377.8
20
-116.9
11
377.8
21
-102.9
0
LINE
8
0
10
377.8
20
-102.9
11
363.8
21
-102.9
0
LINE
8
0
10
363.8
20
-102.9
11
363.8
21
-116.9
0
LINE
8
0
10
363.8
20
-96.85
11
377.8
21
-96.85
0
LINE
8
0
10
377.8
20
-96.85
11
377.8
21
-82.85
0
LINE
8
0
10
377.8
20
-82.85
11
363.8
21
-82.85
0
LINE
8
0
10
363.8
20
-82.85
11
363.8
21
-96.85
0
LINE
8
0
10
343.75
20
-157
11
357.75
21
-157
0
LINE
8
0
10
357.75
20
-157
11
357.75
21
-143
0
LINE
8
0
10
357.75
20
-143
11
343.75
21
-143
0
LINE
8
0
10
343.75
20
-143
11
343.75
21
-157
0
LINE
8
0
10
343.75
20
-136.95
11
357.75
21
-136.95
0
LINE
8
0
10
357.75
20
-136.95
11
357.75
21
-122.95
0
LINE
8
0
10
357.75
20
-122.95
11
343.75
21
-122.95
0
LINE
8
0
10
343.75
20
-122.95
11
343.75
21
-136.95
0
LINE
8
0
10
343.75
20
-116.9
11
357.75
21
-116.9
0
LINE
8
0
10
357.75
20
-116.9
11
357.75
21
-102.9
0
LINE
8
0
10
357.75
20
-102.9
11
343.75
21
-102.9
0
LINE
8
0
10
343.75
20
-102.9
11
343.75
21
-116.9
0
LINE
8
0
10
343.75
20
-96.85
11
357.75
21
-96.85
0
LINE
8
0
10
357.75
20
-96.85
11
357.75
21
-82.85
0
LINE
8
0
10
357.75
20
-82.85
11
343.75
21
-82.85
0
LINE
8
0
10
343.75
20
-82.85
11
343.75
21
-96.85
0
LINE
8
0
10
323.7
20
-149
11
337.7
21
-149
0
LINE
8
0
10
337.7
20
-149
11
337.7
21
-135
0
LINE
8
0
10
337.7
20
-135
11
323.7
21
-135
0
LINE
8
0
10
323.7
20
-135
11
323.7
21
-149
0
LINE
8
0
10
323.7
20
-128.95
11
337.7
21
-128.95
0
LINE
8
0
10
337.7
20
-128.95
11
337.7
21
-114.95
0
LINE
8
0
10
337.7
20
-114.95
11
323.7
21
-114.95
0
LINE
8
0
10
323.7
20
-114.95
11
323.7
21
-128.95
0
LINE
8
0
10
323.7
20
-108.9
11
337.7
21
-108.9
0
LINE
8
0
10
337.7
20
-108.9
11
337.7
21
-94.9
0
LINE
8
0
10
337.7
20
-94.9
11
323.7
21
-94.9
0
LINE
8
0
10
323.7
20
-94.9
11
323.7
21
-108.9
0
LINE
8
0
10
323.7
20
-88.85
11
337.7
21
-88.85
0
LINE
8
0
10
337.7
20
-88.85
11
337.7
21
-74.85
0
LINE
8
0
10
337.7
20
-74.85
11
323.7
21
-74.85
0
LINE
8
0
10
323.7
20
-74.85
11
323.7
21
-88.85
0
LINE
8
0
10
303.65
20
-144
11
317.65
21
-144
0
LINE
8
0
10
317.65
20
-144
11
317.65
21
-130
0
LINE
8
0
10
317.65
20
-130
11
303.65
21
-130
0
LINE
8
0
10
303.65
20
-130
11
303.65
21
-144
0
LINE
8
0
10
303.65
20
-123.95
11
317.65
21
-123.95
0
LINE
8
0
10
317.65
20
-123.95
11
317.65
21
-109.95
0
LINE
8
0
10
317.65
20
-109.95
11
303.65
21
-109.95
0
LINE
8
0
10
303.65
20
-109.95
11
303.65
21
-123.95
0
LINE
8
0
10
303.65
20
-103.9
11
317.65
21
-103.9
0
LINE
8
0
10
317.65
20
-103.9
11
317.65
21
-89.9
0
LINE
8
0
10
317.65
20
-89.9
11
303.65
21
-89.9
0
LINE
8
0
10
303.65
20
-89.9
11
303.65
21
-103.9
0
LINE
8
0
10
303.65
20
-83.85
11
317.65
21
-83.85
0
LINE
8
0
10
317.65
20
-83.85
11
317.65
21
-69.85
0
LINE
8
0
10
317.65
20
-69.85
11
303.65
21
-69.85
0
LINE
8
0
10
303.65
20
-69.85
11
303.65
21
-83.85
0
LINE
8
0
10
283.6
20
-151
11
297.6
21
-151
0
LINE
8
0
10
297.6
20
-151
11
297.6
21
-137
0
LINE
8
0
10
297.6
20
-137
11
283.6
21
-137
0
LINE
8
0
10
283.6
20
-137
11
283.6
21
-151
0
LINE
8
0
10
283.6
20
-130.95
11
297.6
21
-130.95
0
LINE
8
0
10
297.6
20
-130.95
11
297.6
21
-116.95
0
LINE
8
0
10
297.6
20
-116.95
11
283.6
21
-116.95
0
LINE
8
0
10
283.6
20
-116.95
11
283.6
21
-130.95
0
LINE
8
0
10
283.6
20
-110.9
11
297.6
21
-110.9
0
LINE
8
0
10
297.6
20
-110.9
11
297.6
21
-96.9
0
LINE
8
0
10
297.6
20
-96.9
11
283.6
21
-96.9
0
LINE
8
0
10
283.6
20
-96.9
11
283.6
21
-110.9
0
LINE
8
0
10
283.6
20
-90.85
11
297.6
21
-90.85
0
LINE
8
0
10
297.6
20
-90.85
11
297.6
21
-76.85
0
LINE
8
0
10
297.6
20
-76.85
11
283.6
21
-76.85
0
LINE
8
0
10
283.6
20
-76.85
11
283.6
21
-90.85
0
LINE
8
0
10
263.55
20
-133.95
11
277.55
21
-133.95
0
LINE
8
0
10
277.55
20
-133.95
11
277.55
21
-119.95
0
LINE
8
0
10
277.55
20
-119.95
11
263.55
21
-119.95
0
LINE
8
0
10
263.55
20
-119.95
11
263.55
21
-133.95
0
LINE
8
0
10
263.55
20
-113.9
11
277.55
21
-113.9
0
LINE
8
0
10
277.55
20
-113.9
11
277.55
21
-99.9
0
LINE
8
0
10
277.55
20
-99.9
11
263.55
21
-99.9
0
LINE
8
0
10
263.55
20
-99.9
11
263.55
21
-113.9
0
LINE
8
0
10
263.55
20
-93.85
11
277.55
21
-93.85
0
LINE
8
0
10
277.55
20
-93.85
11
277.55
21
-79.85
0
LINE
8
0
10
277.55
20
-79.85
11
263.55
21
-79.85
0
LINE
8
0
10
263.55
20
-79.85
11
263.55
21
-93.85
0
LINE
8
0
10
252.3662927
20
-167.9719893
11
265.5219893
21
-163.1837073
0
LINE
8
0
10
265.5219893
20
-163.1837073
11
260.7337073
21
-150.0280107
0
LINE
8
0
10
260.7337073
20
-150.0280107
11
247.5780107
21
-154.8162927
0
LINE
8
0
10
247.5780107
20
-154.8162927
11
252.3662927
21
-167.9719893
0
LINE
8
0
10
233.5254557
20
-174.8294932
11
246.6811523
21
-170.0412112
0
LINE
8
0
10
246.6811523
20
-170.0412112
11
241.8928703
21
-156.8855146
0
LINE
8
0
10
241.8928703
20
-156.8855146
11
228.7371737
21
-161.6737966
0
LINE
8
0
10
228.7371737
20
-161.6737966
11
233.5254557
21
-174.8294932
0
ENDSEC
0
EOF