0
SECTION
2
HEADER
9
$INSUNITS
70
4
0
ENDSEC
0
SECTION
2
TABLES
0
TABLE
2
LTYPE
0
LTYPE
72
65
70
64
2
CONTINUOUS
3
______
73
0
40
0
0
ENDTAB
0
TABLE
2
LAYER
0
ENDTAB
0
ENDSEC
0
SECTION
2
ENTITIES
0
LINE
8
0
10
39.975
20
-160.025
11
80.075
21
-160.025
0
LINE
8
0
10
39.975
20
-160.025
11
39.975
21
-79.825
0
LINE
8
0
10
39.975
20
-79.825
11
80.075
21
-79.825
0
LINE
8
0
10
80.075
20
-160.025
11
80.075
21
-152.025
0
LINE
8
0
10
80.075
20
-152.025
11
100.125
21
-152.025
0
LINE
8
0
10
100.125
20
-152.025
11
100.125
21
-147.025
0
LINE
8
0
10
100.125
20
-71.825
11
80.075
21
-71.825
0
LINE
8
0
10
80.075
20
-71.825
11
80.075
21
-79.825
0
LINE
8
0
10
100.125
20
-147.025
11
120.175
21
-147.025
0
LINE
8
0
10
120.175
20
-73.825
11
120.175
21
-66.825
0
LINE
8
0
10
120.175
20
-66.825
11
100.125
21
-66.825
0
LINE
8
0
10
100.125
20
-66.825
11
100.125
21
-71.825
0
LINE
8
0
10
120.175
20
-154.025
11
140.225
21
-154.025
0
LINE
8
0
10
140.225
20
-154.025
11
140.225
21
-136.975
0
LINE
8
0
10
120.175
20
-147.025
11
120.175
21
-154.025
0
LINE
8
0
10
140.225
20
-76.825
11
140.225
21
-73.825
0
LINE
8
0
10
140.225
20
-73.825
11
120.175
21
-73.825
0
LINE
8
0
10
140.225
20
-136.975
11
160.275
21
-136.975
0
LINE
8
0
10
160.275
20
-136.975
11
160.275
21
-76.825
0
LINE
8
0
10
160.275
20
-76.825
11
140.225
21
-76.825
0
LINE
8
0
10
151.4008295
20
-164.9916666
11
189.0825036
21
-178.7066744
0
LINE
8
0
10
158.2583334
20
-146.1508295
11
195.9400075
21
-159.8658373
0
LINE
8
0
10
158.2583334
20
-146.1508295
11
151.4008295
21
-164.9916666
0
LINE
8
0
10
189.0825036
20
-178.7066744
11
195.9400075
21
-159.8658373
0
LINE
8
0
10
340.725
20
-160.025
11
380.825
21
-160.025
0
LINE
8
0
10
380.825
20
-160.025
11
380.825
21
-79.825
0
LINE
8
0
10
340.725
20
-79.825
11
380.825
21
-79.825
0
LINE
8
0
10
340.725
20
-152.025
11
340.725
21
-160.025
0
LINE
8
0
10
320.675
20
-152.025
11
340.725
21
-152.025
0
LINE
8
0
10
320.675
20
-147.025
11
320.675
21
-152.025
0
LINE
8
0
10
340.725
20
-79.825
11
340.725
21
-71.825
0
LINE
8
0
10
340.725
20
-71.825
11
320.675
21
-71.825
0
LINE
8
0
10
300.625
20
-147.025
11
320.675
21
-147.025
0
LINE
8
0
10
320.675
20
-71.825
11
320.675
21
-66.825
0
LINE
8
0
10
320.675
20
-66.825
11
300.625
21
-66.825
0
LINE
8
0
10
300.625
20
-66.825
11
300.625
21
-73.825
0
LINE
8
0
10
280.575
20
-154.025
11
300.625
21
-154.025
0
LINE
8
0
10
300.625
20
-154.025
11
300.625
21
-147.025
0
LINE
8
0
10
280.575
20
-136.975
11
280.575
21
-154.025
0
LINE
8
0
10
300.625
20
-73.825
11
280.575
21
-73.825
0
LINE
8
0
10
280.575
20
-73.825
11
280.575
21
-76.825
0
LINE
8
0
10
260.525
20
-136.975
11
280.575
21
-136.975
0
LINE
8
0
10
260.525
20
-136.975
11
260.525
21
-76.825
0
LINE
8
0
10
280.575
20
-76.825
11
260.525
21
-76.825
0
LINE
8
0
10
231.7174964
20
-178.7066744
11
269.3991705
21
-164.9916666
0
LINE
8
0
10
269.3991705
20
-164.9916666
11
262.5416666
21
-146.1508295
0
LINE
8
0
10
224.8599925
20
-159.8658373
11
262.5416666
21
-146.1508295
0
LINE
8
0
10
224.8599925
20
-159.8658373
11
231.7174964
21
-178.7066744
0
ENDSEC
0
EOF