0
SECTION
2
HEADER
9
$INSUNITS
70
4
0
ENDSEC
0
SECTION
2
TABLES
0
TABLE
2
LTYPE
0
LTYPE
72
65
70
64
2
CONTINUOUS
3
______
73
0
40
0
0
ENDTAB
0
TABLE
2
LAYER
0
ENDTAB
0
ENDSEC
0
SECTION
2
ENTITIES
0
LINE
8
0
10
40.5
20
-159.5
11
78.5
21
-159.5
0
LINE
8
0
10
40.5
20
-159.5
11
40.5
21
-83.5
0
LINE
8
0
10
40.5
20
-83.5
11
78.5
21
-83.5
0
LINE
8
0
10
78.5
20
-159.5
11
78.5
21
-154.5
0
LINE
8
0
10
78.5
20
-154.5
11
97.5
21
-154.5
0
LINE
8
0
10
97.5
20
-154.5
11
97.5
21
-151.5
0
LINE
8
0
10
97.5
20
-78.5
11
78.5
21
-78.5
0
LINE
8
0
10
78.5
20
-78.5
11
78.5
21
-83.5
0
LINE
8
0
10
97.5
20
-151.5
11
116.5
21
-151.5
0
LINE
8
0
10
116.5
20
-80.5
11
116.5
21
-75.5
0
LINE
8
0
10
116.5
20
-75.5
11
97.5
21
-75.5
0
LINE
8
0
10
97.5
20
-75.5
11
97.5
21
-78.5
0
LINE
8
0
10
116.5
20
-156.5
11
135.5
21
-156.5
0
LINE
8
0
10
135.5
20
-156.5
11
135.5
21
-139.5
0
LINE
8
0
10
116.5
20
-151.5
11
116.5
21
-156.5
0
LINE
8
0
10
135.5
20
-82.5
11
135.5
21
-80.5
0
LINE
8
0
10
135.5
20
-80.5
11
116.5
21
-80.5
0
LINE
8
0
10
135.5
20
-139.5
11
154.5
21
-139.5
0
LINE
8
0
10
154.5
20
-139.5
11
154.5
21
-82.5
0
LINE
8
0
10
154.5
20
-82.5
11
135.5
21
-82.5
0
LINE
8
0
10
142.6160955
20
-159.1709399
11
171.7257843
21
-183.5968691
0
LINE
8
0
10
154.8290601
20
-144.6160955
11
183.9387489
21
-169.0420247
0
LINE
8
0
10
154.8290601
20
-144.6160955
11
142.6160955
21
-159.1709399
0
LINE
8
0
10
171.7257843
20
-183.5968691
11
183.9387489
21
-169.0420247
0
LINE
8
0
10
325.5
20
-159.5
11
363.5
21
-159.5
0
LINE
8
0
10
363.5
20
-159.5
11
363.5
21
-83.5
0
LINE
8
0
10
325.5
20
-83.5
11
363.5
21
-83.5
0
LINE
8
0
10
325.5
20
-154.5
11
325.5
21
-159.5
0
LINE
8
0
10
306.5
20
-154.5
11
325.5
21
-154.5
0
LINE
8
0
10
306.5
20
-151.5
11
306.5
21
-154.5
0
LINE
8
0
10
325.5
20
-83.5
11
325.5
21
-78.5
0
LINE
8
0
10
325.5
20
-78.5
11
306.5
21
-78.5
0
LINE
8
0
10
287.5
20
-151.5
11
306.5
21
-151.5
0
LINE
8
0
10
306.5
20
-78.5
11
306.5
21
-75.5
0
LINE
8
0
10
306.5
20
-75.5
11
287.5
21
-75.5
0
LINE
8
0
10
287.5
20
-75.5
11
287.5
21
-80.5
0
LINE
8
0
10
268.5
20
-156.5
11
287.5
21
-156.5
0
LINE
8
0
10
287.5
20
-156.5
11
287.5
21
-151.5
0
LINE
8
0
10
268.5
20
-139.5
11
268.5
21
-156.5
0
LINE
8
0
10
287.5
20
-80.5
11
268.5
21
-80.5
0
LINE
8
0
10
268.5
20
-80.5
11
268.5
21
-82.5
0
LINE
8
0
10
249.5
20
-139.5
11
268.5
21
-139.5
0
LINE
8
0
10
249.5
20
-139.5
11
249.5
21
-82.5
0
LINE
8
0
10
268.5
20
-82.5
11
249.5
21
-82.5
0
LINE
8
0
10
232.2742157
20
-183.5968691
11
261.3839045
21
-159.1709399
0
LINE
8
0
10
261.3839045
20
-159.1709399
11
249.1709399
21
-144.6160955
0
LINE
8
0
10
220.0612511
20
-169.0420247
11
249.1709399
21
-144.6160955
0
LINE
8
0
10
220.0612511
20
-169.0420247
11
232.2742157
21
-183.5968691
0
ENDSEC
0
EOF