0
SECTION
2
HEADER
9
$INSUNITS
70
4
0
ENDSEC
0
SECTION
2
TABLES
0
TABLE
2
LTYPE
0
LTYPE
72
65
70
64
2
CONTINUOUS
3
______
73
0
40
0
0
ENDTAB
0
TABLE
2
LAYER
0
ENDTAB
0
ENDSEC
0
SECTION
2
ENTITIES
0
LINE
8
0
10
37.5
20
-160.5
11
37.5
21
-82.5
0
LINE
8
0
10
39.5
20
-80.5
11
73.5
21
-80.5
0
LINE
8
0
10
75.5
20
-78.5
11
75.5
21
-77.5
0
LINE
8
0
10
77.5
20
-75.5
11
92.5
21
-75.5
0
LINE
8
0
10
94.5
20
-73.5
11
94.5
21
-72.5
0
LINE
8
0
10
94.5
20
-72.5
11
117.5
21
-72.5
0
LINE
8
0
10
119.5
20
-74.5
11
119.5
21
-75.5
0
LINE
8
0
10
121.5
20
-77.5
11
155.5
21
-77.5
0
LINE
8
0
10
157.5
20
-79.5
11
157.5
21
-141.088892
0
LINE
8
0
10
158.1874514
20
-142.5979368
11
186.682734
21
-167.3827842
0
LINE
8
0
10
186.9022742
20
-170.1774043
11
173.38113
21
-186.2912764
0
LINE
8
0
10
170.5634659
20
-186.5377901
11
138.9392021
21
-160.0018819
0
LINE
8
0
10
137.6721747
20
-159.5340568
11
134.009273
21
-159.500086
0
LINE
8
0
10
133.9907252
20
-159.5
11
83.5
21
-159.5
0
LINE
8
0
10
81.5
20
-161.5
11
81.5
21
-162.5
0
LINE
8
0
10
39.5
20
-162.5
11
81.5
21
-162.5
0
ARC
8
0
10
39.5
20
-82.5
40
2
50
90
51
180
0
ARC
8
0
10
73.5
20
-78.5
40
2
50
270
51
0
0
ARC
8
0
10
77.5
20
-77.5
40
2
50
90
51
180
0
ARC
8
0
10
92.5
20
-73.5
40
2
50
270
51
0
0
ARC
8
0
10
117.5
20
-74.5
40
2
50
0
51
90
0
ARC
8
0
10
121.5
20
-75.5
40
2
50
180
51
270
0
ARC
8
0
10
155.5
20
-79.5
40
2
50
0
51
90
0
ARC
8
0
10
159.5
20
-141.088892
40
2
50
180
51
228.9836553
0
ARC
8
0
10
185.3701854
20
-168.891829
40
2
50
319.9999988
51
48.9836553
0
ARC
8
0
10
171.8490411
20
-185.0057012
40
2
50
229.9999988
51
319.9999988
0
ARC
8
0
10
137.6536269
20
-161.5339708
40
2
50
49.9999988
51
89.4686371
0
ARC
8
0
10
133.9907252
20
-161.5
40
2
50
89.4686371
51
90
0
ARC
8
0
10
83.5
20
-161.5
40
2
50
90
51
180
0
ARC
8
0
10
39.5
20
-160.5
40
2
50
180
51
270
0
ENDSEC
0
EOF