0
SECTION
2
HEADER
9
$INSUNITS
70
4
0
ENDSEC
0
SECTION
2
TABLES
0
TABLE
2
LTYPE
0
LTYPE
72
65
70
64
2
CONTINUOUS
3
______
73
0
40
0
0
ENDTAB
0
TABLE
2
LAYER
0
ENDTAB
0
ENDSEC
0
SECTION
2
ENTITIES
0
LINE
8
0
10
36.475
20
-161.525
11
36.475
21
-78.325
0
LINE
8
0
10
38.475
20
-76.325
11
74.575
21
-76.325
0
LINE
8
0
10
76.575
20
-74.325
11
76.575
21
-70.325
0
LINE
8
0
10
78.575
20
-68.325
11
94.625
21
-68.325
0
LINE
8
0
10
96.625
20
-66.325
11
96.625
21
-65.325
0
LINE
8
0
10
98.625
20
-63.325
11
121.675
21
-63.325
0
LINE
8
0
10
123.675
20
-65.325
11
123.675
21
-68.325
0
LINE
8
0
10
125.675
20
-70.325
11
161.775
21
-70.325
0
LINE
8
0
10
163.775
20
-72.325
11
163.775
21
-137.0958011
0
LINE
8
0
10
165.0641416
20
-138.9652075
11
200.2975284
21
-152.3630145
0
LINE
8
0
10
201.4660553
20
-154.9164611
11
190.1440216
21
-186.023493
0
LINE
8
0
10
187.5805962
20
-187.218838
11
145.990295
21
-172.0812063
0
LINE
8
0
10
144.853106
20
-171.0283345
11
139.2575537
21
-158.6984866
0
LINE
8
0
10
137.4363245
20
-157.525
11
118.675
21
-157.525
0
LINE
8
0
10
116.675
20
-155.525
11
116.675
21
-152.525
0
LINE
8
0
10
114.675
20
-150.525
11
105.625
21
-150.525
0
LINE
8
0
10
103.625
20
-152.525
11
103.625
21
-153.525
0
LINE
8
0
10
101.625
20
-155.525
11
85.575
21
-155.525
0
LINE
8
0
10
83.575
20
-157.525
11
83.575
21
-161.525
0
LINE
8
0
10
38.475
20
-163.525
11
81.575
21
-163.525
0
ARC
8
0
10
38.475
20
-78.325
40
2
50
90
51
180
0
ARC
8
0
10
74.575
20
-74.325
40
2
50
270
51
0
0
ARC
8
0
10
78.575
20
-70.325
40
2
50
90
51
180
0
ARC
8
0
10
94.625
20
-66.325
40
2
50
270
51
0
0
ARC
8
0
10
98.625
20
-65.325
40
2
50
90
51
180
0
ARC
8
0
10
121.675
20
-65.325
40
2
50
0
51
90
0
ARC
8
0
10
125.675
20
-68.325
40
2
50
180
51
270
0
ARC
8
0
10
161.775
20
-72.325
40
2
50
0
51
90
0
ARC
8
0
10
165.775
20
-137.0958011
40
2
50
180
51
249.1802485
0
ARC
8
0
10
199.5866701
20
-154.2324209
40
2
50
340.0000019
51
69.1802485
0
ARC
8
0
10
188.2646364
20
-185.3394528
40
2
50
250.0000019
51
340.0000019
0
ARC
8
0
10
146.6743352
20
-170.2018211
40
2
50
204.4095798
51
250.0000019
0
ARC
8
0
10
137.4363245
20
-159.525
40
2
50
24.4095798
51
90
0
ARC
8
0
10
118.675
20
-155.525
40
2
50
180
51
270
0
ARC
8
0
10
114.675
20
-152.525
40
2
50
0
51
90
0
ARC
8
0
10
105.625
20
-152.525
40
2
50
90
51
180
0
ARC
8
0
10
101.625
20
-153.525
40
2
50
270
51
0
0
ARC
8
0
10
85.575
20
-157.525
40
2
50
90
51
180
0
ARC
8
0
10
81.575
20
-161.525
40
2
50
270
51
0
0
ARC
8
0
10
38.475
20
-161.525
40
2
50
180
51
270
0
ENDSEC
0
EOF