0
SECTION
2
HEADER
9
$INSUNITS
70
4
0
ENDSEC
0
SECTION
2
TABLES
0
TABLE
2
LTYPE
0
LTYPE
72
65
70
64
2
CONTINUOUS
3
______
73
0
40
0
0
ENDTAB
0
TABLE
2
LAYER
0
ENDTAB
0
ENDSEC
0
SECTION
2
ENTITIES
0
LINE
8
0
10
37.5
20
-160.5
11
37.5
21
-82.5
0
LINE
8
0
10
39.5
20
-80.5
11
73.5
21
-80.5
0
LINE
8
0
10
75.5
20
-78.5
11
75.5
21
-77.5
0
LINE
8
0
10
77.5
20
-75.5
11
92.5
21
-75.5
0
LINE
8
0
10
94.5
20
-73.5
11
94.5
21
-72.5
0
LINE
8
0
10
94.5
20
-72.5
11
117.5
21
-72.5
0
LINE
8
0
10
119.5
20
-74.5
11
119.5
21
-75.5
0
LINE
8
0
10
121.5
20
-77.5
11
155.5
21
-77.5
0
LINE
8
0
10
157.5
20
-79.5
11
157.5
21
-139.4818196
0
LINE
8
0
10
158.3233114
20
-141.0990407
11
189.4854302
21
-163.772573
0
LINE
8
0
10
189.8408305
20
-166.6753693
11
170.3278889
21
-189.9299875
0
LINE
8
0
10
167.5102248
20
-190.1765012
11
135.7474402
21
-163.5243603
0
LINE
8
0
10
135.1531641
20
-162.6750296
11
134.4784195
21
-160.8172418
0
LINE
8
0
10
132.5985681
20
-159.5
11
115.5
21
-159.5
0
LINE
8
0
10
113.5
20
-157.5
11
113.5
21
-156.5
0
LINE
8
0
10
111.5
20
-154.5
11
102.5
21
-154.5
0
LINE
8
0
10
100.5
20
-156.5
11
100.5
21
-157.5
0
LINE
8
0
10
100.5
20
-157.5
11
83.5
21
-157.5
0
LINE
8
0
10
81.5
20
-159.5
11
81.5
21
-160.5
0
LINE
8
0
10
39.5
20
-162.5
11
79.5
21
-162.5
0
ARC
8
0
10
39.5
20
-82.5
40
2
50
90
51
180
0
ARC
8
0
10
73.5
20
-78.5
40
2
50
270
51
0
0
ARC
8
0
10
77.5
20
-77.5
40
2
50
90
51
180
0
ARC
8
0
10
92.5
20
-73.5
40
2
50
270
51
0
0
ARC
8
0
10
117.5
20
-74.5
40
2
50
0
51
90
0
ARC
8
0
10
121.5
20
-75.5
40
2
50
180
51
270
0
ARC
8
0
10
155.5
20
-79.5
40
2
50
0
51
90
0
ARC
8
0
10
159.5
20
-139.4818196
40
2
50
180
51
233.9603966
0
ARC
8
0
10
188.3087416
20
-165.389794
40
2
50
319.9999988
51
53.9603966
0
ARC
8
0
10
168.7958
20
-188.6444123
40
2
50
229.9999988
51
319.9999988
0
ARC
8
0
10
137.0330155
20
-161.9922714
40
2
50
199.9609185
51
229.9999988
0
ARC
8
0
10
132.5985681
20
-161.5
40
2
50
19.9609185
51
90
0
ARC
8
0
10
115.5
20
-157.5
40
2
50
180
51
270
0
ARC
8
0
10
111.5
20
-156.5
40
2
50
0
51
90
0
ARC
8
0
10
102.5
20
-156.5
40
2
50
90
51
180
0
ARC
8
0
10
83.5
20
-159.5
40
2
50
90
51
180
0
ARC
8
0
10
79.5
20
-160.5
40
2
50
270
51
0
0
ARC
8
0
10
39.5
20
-160.5
40
2
50
180
51
270
0
ENDSEC
0
EOF